<svg width="1920" height="652" viewBox="0 0 1920 652" fill="none" xmlns="http://www.w3.org/2000/svg">
<mask id="mask0_128_804" style="mask-type:alpha" maskUnits="userSpaceOnUse" x="0" y="0" width="1920" height="652">
<path d="M0 20L960 0L1920 20V632L960 652L0 632V20Z" fill="#ECECEC"/>
<path d="M0 20L960 0L1920 20V632L960 652L0 632V20Z" fill="url(#paint0_linear_128_804)"/>
<path d="M0 20L960 0L1920 20V632L960 652L0 632V20Z" fill="url(#paint1_linear_128_804)"/>
</mask>
<g mask="url(#mask0_128_804)">
<g opacity="0.15">
<mask id="mask1_128_804" style="mask-type:luminance" maskUnits="userSpaceOnUse" x="-393" y="-486" width="1644" height="1572">
<path d="M1250.92 -128.521C1213.42 -176.394 1132.29 -210.59 1053.29 -224.739C1003.06 -233.701 953.771 -234.644 916.982 -226.154C521.967 -133.709 21.0633 403.748 -85.5319 775.416C-129.16 927.29 -26.1027 1090.48 142.044 1020.21C151.477 1016.2 95.3499 1051.1 53.8438 1063.13C6.44196 1076.57 -43.3182 1085.53 -91.8992 1085.77C-319.475 1086.95 -397.299 913.848 -392.818 753.955C-386.923 547.84 -248.49 330.876 -159.818 196.453C34.5058 -98.3345 567.717 -574.004 950.234 -471.889C1116.73 -427.553 1198.56 -281.103 1250.92 -128.521Z" fill="white"/>
</mask>
<g mask="url(#mask1_128_804)">
<path d="M1262.01 -573.998L-397.051 -585.082L-408.371 1090.49L1250.93 1101.34L1262.01 -573.998Z" fill="white"/>
</g>
<path fill-rule="evenodd" clip-rule="evenodd" d="M923.854 -227.076C648.64 -480.829 84.7705 -20.7249 -115.921 136.338C105.288 -158.214 594.163 -567.143 951.446 -471.632C1117.94 -427.06 1199.78 -280.61 1252.13 -128.263C1214.63 -176.137 1133.51 -210.332 1054.5 -224.482C1007.1 -232.972 960.172 -234.387 923.854 -227.076Z" fill="white"/>
<mask id="mask2_128_804" style="mask-type:luminance" maskUnits="userSpaceOnUse" x="-297" y="175" width="600" height="911">
<path d="M-218.993 1063.85C-490.434 691.946 14.2426 269.574 302.427 175.242C116.829 366.5 -32.6876 591.246 -85.5136 775.429C-129.142 927.304 -26.0844 1090.5 142.062 1020.22C151.496 1016.21 95.3682 1051.11 53.8621 1063.14C6.46024 1076.58 -43.2999 1085.55 -91.8809 1085.78C-140.934 1086.02 -183.147 1078 -218.993 1063.85Z" fill="white"/>
</mask>
<g mask="url(#mask2_128_804)">
<path d="M-934.276 521.436L-190.468 1475.13L746.249 744.296L2.67664 -209.401L-934.276 521.436Z" fill="white"/>
</g>
<mask id="mask3_128_804" style="mask-type:luminance" maskUnits="userSpaceOnUse" x="976" y="-178" width="1186" height="1263">
<path d="M1929.9 1066.93C1762.93 1125.41 1611.29 1031.79 1498.33 903.733C1375.7 764.593 1290.09 567.439 1234.91 387.972C1179.72 209.213 1106.85 -77.5563 976.909 -177.784C976.673 -177.784 1206.37 -185.095 1276.65 -20.2496C1297.87 29.7464 1331.36 80.9215 1362.02 141.53C1414.37 245.531 1528.99 452.354 1659.4 600.219C1741.47 693.372 1832.26 761.763 1909.85 771.196C2142.15 799.496 2046.63 381.841 1732.51 352.126C1962.68 342.457 2042.86 430.658 2101.11 509.896C2231.76 687.477 2140.26 993.348 1929.9 1066.93Z" fill="white"/>
</mask>
<g mask="url(#mask3_128_804)">
<path d="M2769.7 96.2471L1246.24 -700.387L438.759 844.3L1962.46 1640.7L2769.7 96.2471Z" fill="white"/>
</g>
<path fill-rule="evenodd" clip-rule="evenodd" d="M1873.3 834.389C1769.3 852.312 1554.22 860.33 1312.5 598.559C1361.55 710.578 1422.87 818.116 1498.33 903.723C1611.29 1031.78 1762.93 1125.4 1929.9 1066.92C2140.26 993.338 2231.76 687.231 2101.11 510.122C2056.07 448.806 1996.64 382.067 1866.7 359.663C1828.73 353.06 1783.69 349.994 1732.51 352.352C1739.59 353.06 1747.6 354.003 1754.44 355.182C1817.41 364.851 1870.94 390.085 1912.92 424.28C1936.27 443.382 1957.26 464.371 1974.71 487.247C1999.47 519.791 2017.63 555.402 2027.77 589.833C2036.73 620.255 2040.03 651.384 2037.2 677.797C2036.5 683.929 2035.55 689.825 2033.9 695.721C2032.72 700.437 2031.07 705.154 2029.66 709.634C2007.02 775.431 1940.04 823.069 1873.3 834.389Z" fill="white"/>
<mask id="mask4_128_804" style="mask-type:luminance" maskUnits="userSpaceOnUse" x="26" y="92" width="1796" height="896">
<path d="M1821.65 318.866C1821.65 318.866 1442.44 148.125 1008.04 396.69C694.383 576.393 445.582 783.216 317.055 887.688C174.141 1003.72 42.7841 1015.04 28.6343 939.571C-29.3799 632.284 1280.89 -344.052 1821.65 318.866Z" fill="white"/>
</mask>
<g mask="url(#mask4_128_804)">
<path d="M272.037 -1027.24L-530.965 793.839L1520.29 1698.48L2323.52 -122.596L272.037 -1027.24Z" fill="white"/>
</g>
<path fill-rule="evenodd" clip-rule="evenodd" d="M30.5224 947.117C31.7015 951.126 33.3523 954.663 35.4748 958.201C36.8898 960.323 38.3048 962.446 39.7197 964.332C41.3705 966.455 43.2571 968.341 45.1437 969.992C49.6245 974.001 54.8128 977.303 60.7086 979.897C69.4343 983.906 79.8107 986.264 91.3664 986.972C35.4747 844.766 611.843 333.958 1165.81 206.374C1238.68 189.63 1311.08 179.49 1381.59 177.603C1544.32 173.358 1697.13 213.449 1821.65 318.629C1694.3 162.51 1524.03 97.185 1339.14 92.9401C1271.93 91.2893 1203.07 97.8924 1133.26 110.863C604.769 209.44 41.6064 686.053 26.9849 909.855C26.7491 923.062 27.6924 935.325 30.5224 947.117Z" fill="white"/>
<mask id="mask5_128_804" style="mask-type:luminance" maskUnits="userSpaceOnUse" x="976" y="-178" width="258" height="287">
<path d="M1146.23 108.511C1175.48 103.322 1204.48 99.549 1233.49 96.719C1182.55 -21.196 1114.63 -134.394 976.909 -177.787C1048.6 -122.603 1102.84 -10.5837 1146.23 108.511Z" fill="white"/>
</mask>
<g mask="url(#mask5_128_804)">
<path d="M1319.35 -149.02L1002.63 -254.672L891.085 79.9712L1208.04 185.623L1319.35 -149.02Z" fill="white"/>
</g>
<mask id="mask6_128_804" style="mask-type:luminance" maskUnits="userSpaceOnUse" x="1309" y="264" width="230" height="181">
<path d="M1428.06 264.634C1390.33 267.699 1350.71 272.888 1309.67 281.378C1357.31 384.435 1416.74 458.722 1538.43 442.214C1496.92 381.37 1459.43 319.582 1428.06 264.634Z" fill="white"/>
</mask>
<g mask="url(#mask6_128_804)">
<path d="M1536.1 480.891L1557.32 266.522L1311.83 242.231L1290.84 456.837L1536.1 480.891Z" fill="white"/>
</g>
</g>
</g>
<defs>
<linearGradient id="paint0_linear_128_804" x1="-4.82798e-05" y1="20" x2="1139.7" y2="1155.31" gradientUnits="userSpaceOnUse">
<stop stop-color="#FAB837"/>
<stop offset="1" stop-color="#FD622C"/>
</linearGradient>
<linearGradient id="paint1_linear_128_804" x1="0" y1="0" x2="1300.9" y2="1123.18" gradientUnits="userSpaceOnUse">
<stop stop-color="#32CEB8"/>
<stop offset="1" stop-color="#61DAA4"/>
</linearGradient>
</defs>
</svg>
