<svg width="288" height="228" viewBox="0 0 288 228" fill="none" xmlns="http://www.w3.org/2000/svg">
<g clip-path="url(#clip0_2031_3)">
<mask id="mask0_2031_3" style="mask-type:luminance" maskUnits="userSpaceOnUse" x="-119" y="-150" width="526" height="526">
<path d="M407 -150H-119V376H407V-150Z" fill="white"/>
</mask>
<g mask="url(#mask0_2031_3)">
<mask id="mask1_2031_3" style="mask-type:luminance" maskUnits="userSpaceOnUse" x="4" y="184" width="280" height="39">
<path d="M265.897 190.987L272.407 206.433H259.388L265.897 190.987ZM248.602 221.518H253.046L257.646 210.564H274.125L278.773 221.518H283.469L267.915 185.15H264.144L248.602 221.518ZM239.246 214.696C236.771 216.714 233.456 217.903 229.997 217.903C221.626 217.903 215.897 212.066 215.897 203.442C215.897 194.866 221.482 188.981 229.325 188.981C233.096 188.981 235.883 189.906 238.261 191.671L240.278 188.368C237.696 186.146 233.925 184.861 229.277 184.861C217.962 184.861 211.248 193.077 211.248 203.454C211.248 214.72 218.743 222.047 229.589 222.047C234.081 222.047 238.573 220.497 241.011 218.023L239.246 214.696ZM191.923 221.518H196.319V185.354H191.923V221.518ZM179.312 185.354H174.868L162.929 215.104L150.63 185.354H145.934L161.176 221.722H164.43L179.312 185.354ZM128.939 221.518H133.335V185.354H128.939V221.518ZM86.372 189.485H99.032V221.518H103.428V189.485H116.087V185.354H86.384V189.485H86.372ZM76.656 214.696C74.181 216.714 70.866 217.903 67.407 217.903C59.036 217.903 53.307 212.066 53.307 203.442C53.307 194.866 58.892 188.981 66.735 188.981C70.506 188.981 73.293 189.906 75.671 191.671L77.689 188.368C75.106 186.146 71.335 184.861 66.687 184.861C55.373 184.861 48.659 193.077 48.659 203.454C48.659 214.72 56.153 222.047 66.999 222.047C71.491 222.047 75.983 220.497 78.421 218.023L76.656 214.696ZM21.838 190.987L28.348 206.433H15.329L21.838 190.987ZM4.54297 221.518H8.98697L13.587 210.564H30.066L34.714 221.518H39.41L23.856 185.15H20.085L4.54297 221.518Z" fill="white"/>
</mask>
<g mask="url(#mask1_2031_3)">
<path d="M283.469 184.837H4.54297V222.034H283.469V184.837Z" fill="url(#paint0_linear_2031_3)"/>
</g>
</g>
<mask id="mask2_2031_3" style="mask-type:luminance" maskUnits="userSpaceOnUse" x="-119" y="-150" width="526" height="526">
<path d="M407 -150H-119V376H407V-150Z" fill="white"/>
</mask>
<g mask="url(#mask2_2031_3)">
<mask id="mask3_2031_3" style="mask-type:luminance" maskUnits="userSpaceOnUse" x="4" y="184" width="280" height="39">
<path d="M265.897 190.987L272.407 206.433H259.388L265.897 190.987ZM248.602 221.518H253.046L257.646 210.564H274.125L278.773 221.518H283.469L267.915 185.15H264.144L248.602 221.518ZM239.246 214.696C236.771 216.714 233.456 217.903 229.997 217.903C221.626 217.903 215.897 212.066 215.897 203.442C215.897 194.866 221.482 188.981 229.325 188.981C233.096 188.981 235.883 189.906 238.261 191.671L240.278 188.368C237.696 186.146 233.925 184.861 229.277 184.861C217.962 184.861 211.248 193.077 211.248 203.454C211.248 214.72 218.743 222.047 229.589 222.047C234.081 222.047 238.573 220.497 241.011 218.023L239.246 214.696ZM191.923 221.518H196.319V185.354H191.923V221.518ZM179.312 185.354H174.868L162.929 215.104L150.63 185.354H145.934L161.176 221.722H164.43L179.312 185.354ZM128.939 221.518H133.335V185.354H128.939V221.518ZM86.372 189.485H99.032V221.518H103.428V189.485H116.087V185.354H86.384V189.485H86.372ZM76.656 214.696C74.181 216.714 70.866 217.903 67.407 217.903C59.036 217.903 53.307 212.066 53.307 203.442C53.307 194.866 58.892 188.981 66.735 188.981C70.506 188.981 73.293 189.906 75.671 191.671L77.689 188.368C75.106 186.146 71.335 184.861 66.687 184.861C55.373 184.861 48.659 193.077 48.659 203.454C48.659 214.72 56.153 222.047 66.999 222.047C71.491 222.047 75.983 220.497 78.421 218.023L76.656 214.696ZM21.838 190.987L28.348 206.433H15.329L21.838 190.987ZM4.54297 221.518H8.98697L13.587 210.564H30.066L34.714 221.518H39.41L23.856 185.15H20.085L4.54297 221.518Z" fill="white"/>
</mask>
<g mask="url(#mask3_2031_3)">
<path d="M283.469 184.837H4.54297V222.034H283.469V184.837Z" fill="url(#paint1_linear_2031_3)"/>
</g>
</g>
<mask id="mask4_2031_3" style="mask-type:luminance" maskUnits="userSpaceOnUse" x="-119" y="-150" width="526" height="526">
<path d="M407 -150H-119V376H407V-150Z" fill="white"/>
</mask>
<g mask="url(#mask4_2031_3)">
<mask id="mask5_2031_3" style="mask-type:luminance" maskUnits="userSpaceOnUse" x="26" y="3" width="154" height="148">
<path d="M179.542 37.3322C176.035 32.8642 168.48 29.6812 161.118 28.3482C156.446 27.5072 151.833 27.4112 148.398 28.2162C111.537 36.8512 64.8147 86.9842 54.8697 121.66C50.8107 135.82 60.4067 151.05 76.1047 144.492C76.9937 144.12 71.7577 147.375 67.8657 148.492C63.4457 149.753 58.7977 150.57 54.2697 150.594C33.0467 150.702 25.7677 134.559 26.2007 119.63C26.7407 100.4 39.6647 80.1622 47.9277 67.6352C66.0637 40.1422 115.801 -4.24876 151.485 5.28724C167.015 9.44324 174.654 23.0992 179.542 37.3322Z" fill="white"/>
</mask>
<g mask="url(#mask5_2031_3)">
<path d="M180.575 -4.23653L25.7801 -5.26953L24.7471 151.038L179.53 152.071L180.575 -4.23653Z" fill="url(#paint2_linear_2031_3)"/>
</g>
</g>
<mask id="mask6_2031_3" style="mask-type:luminance" maskUnits="userSpaceOnUse" x="-119" y="-150" width="526" height="526">
<path d="M407 -150H-119V376H407V-150Z" fill="white"/>
</mask>
<g mask="url(#mask6_2031_3)">
<path fill-rule="evenodd" clip-rule="evenodd" d="M149.009 28.1428C123.342 4.46978 70.7348 47.4088 52.0098 62.0498C72.6438 34.5688 118.261 -3.58923 151.591 5.32277C167.121 9.47877 174.76 23.1348 179.648 37.3678C176.141 32.8998 168.586 29.7168 161.224 28.3958C156.78 27.5788 152.396 27.4588 149.009 28.1428Z" fill="#FACE3B"/>
</g>
<mask id="mask7_2031_3" style="mask-type:luminance" maskUnits="userSpaceOnUse" x="-119" y="-150" width="526" height="526">
<path d="M407 -150H-119V376H407V-150Z" fill="white"/>
</mask>
<g mask="url(#mask7_2031_3)">
<mask id="mask8_2031_3" style="mask-type:luminance" maskUnits="userSpaceOnUse" x="35" y="65" width="57" height="86">
<path d="M42.4001 148.564C17.0691 113.865 64.1521 74.457 91.0561 65.665C73.7481 83.513 59.7921 104.484 54.8671 121.66C50.8081 135.82 60.4041 151.05 76.1021 144.492C76.9911 144.12 71.7541 147.375 67.8631 148.492C63.4431 149.753 58.7951 150.569 54.2671 150.593C49.6791 150.618 45.7511 149.885 42.4001 148.564Z" fill="white"/>
</mask>
<g mask="url(#mask8_2031_3)">
<path d="M-24.332 97.9621L45.054 186.926L132.457 118.765L63.07 29.7891L-24.332 97.9621Z" fill="url(#paint3_linear_2031_3)"/>
</g>
</g>
<mask id="mask9_2031_3" style="mask-type:luminance" maskUnits="userSpaceOnUse" x="-119" y="-150" width="526" height="526">
<path d="M407 -150H-119V376H407V-150Z" fill="white"/>
</mask>
<g mask="url(#mask9_2031_3)">
<mask id="mask10_2031_3" style="mask-type:luminance" maskUnits="userSpaceOnUse" x="153" y="32" width="112" height="119">
<path d="M242.873 148.864C227.295 154.317 213.146 145.585 202.6 133.634C191.154 120.663 183.179 102.25 178.026 85.5189C172.886 68.8479 166.076 42.0759 153.969 32.7439C153.957 32.7319 175.384 32.059 181.93 47.445C183.924 52.117 187.034 56.885 189.881 62.542C194.757 72.235 205.471 91.524 217.626 105.337C225.289 114.033 233.744 120.41 240.987 121.299C262.654 123.942 253.742 84.9669 224.448 82.2039C245.923 81.3029 253.406 89.543 258.847 96.917C271.026 113.444 262.498 141.994 242.873 148.864Z" fill="white"/>
</mask>
<g mask="url(#mask10_2031_3)">
<path d="M321.22 58.2902L179.084 -16.0078L103.765 128.073L245.9 202.384L321.22 58.2902Z" fill="url(#paint4_linear_2031_3)"/>
</g>
</g>
<mask id="mask11_2031_3" style="mask-type:luminance" maskUnits="userSpaceOnUse" x="-119" y="-150" width="526" height="526">
<path d="M407 -150H-119V376H407V-150Z" fill="white"/>
</mask>
<g mask="url(#mask11_2031_3)">
<path fill-rule="evenodd" clip-rule="evenodd" d="M237.588 127.173C227.896 128.842 207.826 129.587 185.27 105.181C189.834 115.618 195.563 125.659 202.601 133.646C213.147 145.597 227.283 154.329 242.873 148.876C262.487 142.006 271.026 113.456 258.848 96.9289C254.644 91.2239 249.095 84.9789 236.988 82.8889C233.445 82.2759 229.253 81.9879 224.461 82.2159C225.133 82.2759 225.866 82.3719 226.515 82.4689C232.388 83.3809 237.372 85.7229 241.312 88.9179C243.498 90.6959 245.444 92.6659 247.077 94.7919C249.395 97.8299 251.077 101.145 252.025 104.376C252.854 107.211 253.166 110.117 252.902 112.58C252.842 113.144 252.734 113.709 252.602 114.249C252.494 114.693 252.35 115.114 252.206 115.546C250.068 121.66 243.822 126.092 237.588 127.173Z" fill="#9440DB"/>
</g>
<mask id="mask12_2031_3" style="mask-type:luminance" maskUnits="userSpaceOnUse" x="-119" y="-150" width="526" height="526">
<path d="M407 -150H-119V376H407V-150Z" fill="white"/>
</mask>
<g mask="url(#mask12_2031_3)">
<mask id="mask13_2031_3" style="mask-type:luminance" maskUnits="userSpaceOnUse" x="65" y="57" width="168" height="85">
<path d="M232.772 79.0571C232.772 79.0571 197.388 63.1311 156.876 86.3241C127.618 103.079 104.401 122.392 92.4138 132.121C79.0818 142.955 66.8308 144.012 65.4978 136.949C60.0928 108.316 182.327 17.2261 232.772 79.0571Z" fill="white"/>
</mask>
<g mask="url(#mask13_2031_3)">
<path d="M88.2101 -46.5269L13.2871 123.377L204.655 207.765L279.59 37.8731L88.2101 -46.5269Z" fill="url(#paint5_linear_2031_3)"/>
</g>
</g>
<mask id="mask14_2031_3" style="mask-type:luminance" maskUnits="userSpaceOnUse" x="-119" y="-150" width="526" height="526">
<path d="M407 -150H-119V376H407V-150Z" fill="white"/>
</mask>
<g mask="url(#mask14_2031_3)">
<path fill-rule="evenodd" clip-rule="evenodd" d="M65.6789 137.67C65.7989 138.043 65.9549 138.379 66.1359 138.703C66.2559 138.907 66.3879 139.1 66.5319 139.28C66.6879 139.472 66.8559 139.652 67.0359 139.82C67.4569 140.192 67.9369 140.505 68.4899 140.757C68.4899 140.757 68.4899 140.757 68.5019 140.757C69.3179 141.117 70.2789 141.346 71.3599 141.418H71.3719C66.1599 128.158 119.92 80.499 171.602 68.584C178.4 67.023 185.15 66.0739 191.732 65.8939C206.914 65.4969 221.159 69.2329 232.785 79.0579C220.895 64.4889 205.016 58.411 187.757 58.003C181.499 57.859 175.049 58.4589 168.552 59.6719C119.259 68.8729 66.6999 113.324 65.3549 134.223C65.3189 135.424 65.4149 136.577 65.6789 137.67Z" fill="#FEFEFE"/>
</g>
<mask id="mask15_2031_3" style="mask-type:luminance" maskUnits="userSpaceOnUse" x="-119" y="-150" width="526" height="526">
<path d="M407 -150H-119V376H407V-150Z" fill="white"/>
</mask>
<g mask="url(#mask15_2031_3)">
<mask id="mask16_2031_3" style="mask-type:luminance" maskUnits="userSpaceOnUse" x="153" y="32" width="25" height="28">
<path d="M169.765 59.4561C172.492 58.9751 175.206 58.6151 177.896 58.3631C173.14 47.3491 166.811 36.8031 153.959 32.7441C160.649 37.8841 165.706 48.3221 169.765 59.4561Z" fill="white"/>
</mask>
<g mask="url(#mask16_2031_3)">
<path d="M185.919 35.41L156.36 25.561L145.959 56.777L175.518 66.626L185.919 35.41Z" fill="url(#paint6_linear_2031_3)"/>
</g>
</g>
<mask id="mask17_2031_3" style="mask-type:luminance" maskUnits="userSpaceOnUse" x="-119" y="-150" width="526" height="526">
<path d="M407 -150H-119V376H407V-150Z" fill="white"/>
</mask>
<g mask="url(#mask17_2031_3)">
<mask id="mask18_2031_3" style="mask-type:luminance" maskUnits="userSpaceOnUse" x="184" y="74" width="23" height="17">
<path d="M196.044 74.001C192.525 74.277 188.826 74.781 184.994 75.574C189.45 85.195 194.975 92.125 206.337 90.588C202.47 84.895 198.963 79.129 196.044 74.001Z" fill="white"/>
</mask>
<g mask="url(#mask18_2031_3)">
<path d="M206.132 94.1908L208.102 74.1689L185.209 71.9229L183.239 91.9449L206.132 94.1908Z" fill="url(#paint7_linear_2031_3)"/>
</g>
</g>
</g>
<defs>
<linearGradient id="paint0_linear_2031_3" x1="143.989" y1="227.248" x2="143.989" y2="171.443" gradientUnits="userSpaceOnUse">
<stop stop-color="#472894"/>
<stop offset="1" stop-color="#8034D3"/>
</linearGradient>
<linearGradient id="paint1_linear_2031_3" x1="143.989" y1="227.248" x2="143.989" y2="171.443" gradientUnits="userSpaceOnUse">
<stop stop-color="#472894"/>
<stop offset="1" stop-color="#8034D3"/>
</linearGradient>
<linearGradient id="paint2_linear_2031_3" x1="153.556" y1="73.7405" x2="-15.1959" y2="72.6185" gradientUnits="userSpaceOnUse">
<stop stop-color="#FACE3B"/>
<stop offset="1" stop-color="#FF1C22"/>
</linearGradient>
<linearGradient id="paint3_linear_2031_3" x1="-65.011" y1="-44.3039" x2="91.616" y2="156.524" gradientUnits="userSpaceOnUse">
<stop stop-color="#FACE3B"/>
<stop offset="1" stop-color="#FF1C22"/>
</linearGradient>
<linearGradient id="paint4_linear_2031_3" x1="271.007" y1="123.76" x2="90.5067" y2="29.4032" gradientUnits="userSpaceOnUse">
<stop stop-color="#3D0CBB"/>
<stop offset="1" stop-color="#DC6BF6"/>
</linearGradient>
<linearGradient id="paint5_linear_2031_3" x1="158.488" y1="53.2822" x2="110.698" y2="161.652" gradientUnits="userSpaceOnUse">
<stop stop-color="#2ECDB9"/>
<stop offset="1" stop-color="#C4F57A"/>
</linearGradient>
<linearGradient id="paint6_linear_2031_3" x1="227.493" y1="66.581" x2="91.7" y2="21.3341" gradientUnits="userSpaceOnUse">
<stop stop-color="#3D0CBB"/>
<stop offset="1" stop-color="#DC6BF6"/>
</linearGradient>
<linearGradient id="paint7_linear_2031_3" x1="191.074" y1="129.636" x2="199.059" y2="48.2559" gradientUnits="userSpaceOnUse">
<stop stop-color="#3D0CBB"/>
<stop offset="1" stop-color="#DC6BF6"/>
</linearGradient>
<clipPath id="clip0_2031_3">
<rect width="288" height="228" fill="white"/>
</clipPath>
</defs>
</svg>
