<svg width="122" height="122" viewBox="0 0 122 122" fill="none" xmlns="http://www.w3.org/2000/svg">
<path d="M19.5 73.5L9.55936 76.8441C6.64809 77.8235 5.0025 80.9001 5.8039 83.8653V83.8653C6.65157 87.0016 9.90678 88.833 13.0274 87.9292L33.5 82" stroke="white" stroke-width="1.5" stroke-linecap="round" stroke-linejoin="round"/>
<circle cx="47.4357" cy="27.2157" r="9.94007" stroke="white" stroke-width="1.5"/>
<path d="M19.8206 58.0981C20.5135 57.7021 23.3245 56.4352 29.0259 54.5347C34.7273 52.6342 37.5384 55.3266 38.2313 56.9103L48.1903 81.444C49.3996 84.4232 47.8897 87.8104 44.8656 88.9025V88.9025C41.9935 89.9396 38.8162 88.5136 37.6822 85.6784L30.3969 67.4652C30.2941 67.2083 30.0104 67.0763 29.7483 67.1653C26.3952 68.3042 19.8359 70.4136 18.9297 70.8667V70.8667C16.0701 72.2966 12.297 71.5731 10.0375 69.3111C9.29555 68.5683 8.64187 67.6214 8.23886 66.4126C7.65038 64.6474 8.32417 60.9698 9.19457 57.6034C10.0366 54.3465 11.3663 51.2375 13.0269 48.312C15.4869 43.9782 18.9302 38.5737 22.1959 36.124C23.6491 35.034 25.1766 34.2403 26.6592 33.6835C31.7157 31.7847 38.2313 34.583 38.2313 39.9843V39.9843C38.2313 42.1223 37.5 44 37.5 44M29.5 51.5C27.4214 47.3427 27.2439 44.4385 27.2439 42.0629C27.2439 39.9843 27.8378 37.6087 30.8073 37.3118C31.2081 37.2717 31.5751 37.31 31.9098 37.4075C34.8666 38.2689 34.6759 42.4495 35.4813 45.422C36.2329 48.1964 37.5562 51.3314 39.7157 53.3469C44.1699 57.5042 49 61 52.1874 62.2553C55.072 63.3913 55.3278 66 55.1569 67.3034C55 68.5 53.0783 70.8668 49.5149 69.382C46.6642 68.1942 45.8908 67.6003 45 67.0064" stroke="white" stroke-width="1.5" stroke-linecap="round" stroke-linejoin="round"/>
<path d="M39.27 92.4347H4.8242C3.7582 92.4347 2.89404 93.2988 2.89404 94.3648C2.89404 95.4308 3.7582 96.295 4.82419 96.295H39.27C40.336 96.295 41.2001 95.4308 41.2001 94.3648C41.2001 93.2988 40.336 92.4347 39.27 92.4347Z" stroke="white" stroke-width="1.5" stroke-linecap="round" stroke-linejoin="round"/>
<path d="M80.8201 90.1004L47.0193 95.9556C45.9435 96.142 44.9242 95.4092 44.7581 94.3301C44.5963 93.278 45.3076 92.2905 46.3567 92.1106L80.1676 86.3141C81.1892 86.139 82.1655 86.8058 82.374 87.8211C82.5921 88.8832 81.8885 89.9153 80.8201 90.1004Z" stroke="white" stroke-width="1.5" stroke-linecap="round" stroke-linejoin="round"/>
<path d="M117.07 96.295H82.9211C81.8551 96.295 80.991 95.4308 80.991 94.3648C80.991 93.2988 81.8551 92.4347 82.9211 92.4347H117.07C118.136 92.4347 119 93.2988 119 94.3648C119 95.4308 118.136 96.295 117.07 96.295Z" stroke="white" stroke-width="1.5" stroke-linecap="round" stroke-linejoin="round"/>
<path d="M5.86352 104.719H116.031C117.671 104.719 119 103.389 119 101.749C119 100.109 117.671 98.7797 116.031 98.7797H5.86351C4.22352 98.7797 2.89404 100.109 2.89404 101.749C2.89404 103.389 4.22353 104.719 5.86352 104.719Z" stroke="white" stroke-width="1.5" stroke-linecap="round" stroke-linejoin="round"/>
</svg>
