<svg width="122" height="122" viewBox="0 0 122 122" fill="none" xmlns="http://www.w3.org/2000/svg">
<path d="M14.5798 83.8284H12.0176C6.76142 83.8284 2.50049 88.0894 2.50049 93.3455V93.3455C2.50049 98.6016 6.76142 102.863 12.0175 102.863H107.92C113.176 102.863 117.437 98.6016 117.437 93.3455V93.3455C117.437 88.0894 113.176 83.8284 107.92 83.8284H32.8819M14.5798 83.8284V64.0622M14.5798 83.8284H32.8819M14.5798 64.0622H32.8819M14.5798 64.0622L7.9911 57.4735M32.8819 64.0622V83.8284M32.8819 64.0622L39.4706 57.4735M83.0295 27.0921H5.97787C4.05737 27.0921 2.50049 25.5352 2.50049 23.6147V23.6147C2.50049 21.6942 4.05737 20.1373 5.97788 20.1373H113.96C115.88 20.1373 117.437 21.6942 117.437 23.6147V23.6147C117.437 25.5352 115.88 27.0921 113.96 27.0921H100.233M83.0295 27.0921V27.0921C83.0295 34.1349 87.4062 40.4359 94.0058 42.8946L101.698 45.7602M83.0295 27.0921H100.233M100.233 27.0921V27.0921C100.233 29.8475 101.568 32.4321 103.816 34.0267L111.581 39.5375" stroke="white" stroke-width="1.5" stroke-linecap="round" stroke-linejoin="round"/>
<path d="M119.25 48.6886C119.25 53.5305 115.325 57.4556 110.483 57.4556C106.839 57.4556 103.713 55.2328 102.39 52.0662C101.956 51.0277 101.716 49.8871 101.716 48.6886C101.716 43.8467 105.641 39.9215 110.483 39.9215C115.325 39.9215 119.25 43.8467 119.25 48.6886Z" stroke="white" stroke-width="1.5" stroke-linecap="round" stroke-linejoin="round"/>
<path d="M109.751 57.8396L103.162 62.9642M101.698 51.2509L97.3053 57.1075M97.3053 57.1075V61.866M97.3053 57.1075L91.8147 56.0094L89.2524 60.4019M97.3053 61.866L94.7431 63.6962M97.3053 61.866L103.162 62.9642M103.162 62.9642L102.064 68.4548L97.6714 69.1869" stroke="white" stroke-width="1.5" stroke-linecap="round" stroke-linejoin="round"/>
<rect x="39.4883" y="78.4539" width="23.3908" height="2.89249" rx="1.44625" stroke="white" stroke-width="1.5"/>
<rect x="68.7715" y="78.4539" width="23.3908" height="2.89249" rx="1.44625" stroke="white" stroke-width="1.5"/>
<rect x="68.7715" y="72.3293" width="23.3908" height="2.89249" rx="1.44625" stroke="white" stroke-width="1.5"/>
<rect x="68.7715" y="66.2048" width="23.3908" height="2.89249" rx="1.44625" stroke="white" stroke-width="1.5"/>
<rect x="16.062" y="29.9403" width="16.07" height="2.89249" rx="1.44625" stroke="white" stroke-width="1.5"/>
<rect x="16.062" y="36.0648" width="16.07" height="2.89249" rx="1.44625" stroke="white" stroke-width="1.5"/>
<rect x="16.062" y="46.5103" width="16.07" height="2.89249" rx="1.44625" stroke="white" stroke-width="1.5"/>
<rect x="39.4883" y="72.3293" width="23.3908" height="2.89249" rx="1.44625" stroke="white" stroke-width="1.5"/>
<circle cx="110.482" cy="48.6885" r="4.37457" stroke="white" stroke-width="1.5"/>
</svg>
