<svg width="361" height="371" viewBox="0 0 361 371" fill="none" xmlns="http://www.w3.org/2000/svg">
<g opacity="0.3">
<mask id="mask0_78_729" style="mask-type:luminance" maskUnits="userSpaceOnUse" x="-27" y="0" width="388" height="371">
<path d="M-26.6248 85.0198C-17.7988 73.7513 1.29651 65.7024 19.8923 62.3718C31.7158 60.2624 43.3174 60.0404 51.9769 62.0387C144.956 83.7986 262.858 210.305 287.949 297.789C298.218 333.537 273.96 371.95 234.382 355.408C232.162 354.464 245.373 362.68 255.143 365.51C266.3 368.675 278.013 370.784 289.448 370.839C343.015 371.117 361.333 330.373 360.278 292.737C358.89 244.222 326.306 193.153 305.434 161.512C259.694 92.125 134.187 -19.8382 44.1501 4.19757C4.96021 14.6334 -14.3017 49.105 -26.6248 85.0198Z" fill="white"/>
</mask>
<g mask="url(#mask0_78_729)">
<path d="M-29.237 -19.8367L361.274 -22.4457L363.938 371.951L-26.6281 374.505L-29.237 -19.8367Z" fill="white"/>
</g>
<path fill-rule="evenodd" clip-rule="evenodd" d="M50.3606 61.8218C115.14 2.09334 247.864 110.393 295.103 147.362C243.035 78.0307 127.963 -18.2232 43.8659 4.25823C4.67606 14.7496 -14.5858 49.2211 -26.909 85.0804C-18.0829 73.8119 1.01245 65.763 19.6082 62.4324C30.7657 60.4341 41.8121 60.101 50.3606 61.8218Z" fill="white"/>
<mask id="mask1_78_729" style="mask-type:luminance" maskUnits="userSpaceOnUse" x="196" y="156" width="142" height="215">
<path d="M319.364 365.68C383.255 278.141 264.464 178.723 196.632 156.52C240.318 201.538 275.511 254.439 287.945 297.792C298.214 333.54 273.957 371.953 234.378 355.411C232.158 354.467 245.369 362.683 255.139 365.514C266.296 368.678 278.009 370.787 289.444 370.843C300.99 370.898 310.926 369.011 319.364 365.68Z" fill="white"/>
</mask>
<g mask="url(#mask1_78_729)">
<path d="M487.728 238.007L312.65 462.488L92.1651 290.464L267.187 65.9822L487.728 238.007Z" fill="white"/>
</g>
<mask id="mask2_78_729" style="mask-type:luminance" maskUnits="userSpaceOnUse" x="-241" y="73" width="279" height="298">
<path d="M-186.442 366.405C-147.141 380.171 -111.448 358.134 -84.8591 327.992C-55.994 295.241 -35.844 248.835 -22.8547 206.592C-9.86539 164.516 7.28713 97.0158 37.873 73.4241C37.9285 73.4241 -16.138 71.7033 -32.6799 110.505C-37.6758 122.273 -45.5582 134.318 -52.7744 148.584C-65.0976 173.064 -92.0753 221.746 -122.772 256.551C-142.09 278.477 -163.461 294.575 -181.724 296.795C-236.401 303.457 -213.919 205.149 -139.98 198.155C-194.158 195.879 -213.031 216.639 -226.742 235.291C-257.494 277.089 -235.957 349.086 -186.442 366.405Z" fill="white"/>
</mask>
<g mask="url(#mask2_78_729)">
<path d="M-384.115 137.926L-25.5223 -49.5863L164.543 314.003L-194.105 501.459L-384.115 137.926Z" fill="white"/>
</g>
<mask id="mask3_78_729" style="mask-type:luminance" maskUnits="userSpaceOnUse" x="-161" y="137" width="423" height="211">
<path d="M-160.962 190.326C-160.962 190.326 -71.7025 150.137 30.5464 208.644C104.374 250.943 162.937 299.625 193.19 324.215C226.829 351.526 257.748 354.191 261.078 336.428C274.734 264.098 -33.6783 34.288 -160.962 190.326Z" fill="white"/>
</mask>
<g mask="url(#mask3_78_729)">
<path d="M203.786 -126.521L392.797 302.125L-90.0269 515.061L-279.093 86.4144L203.786 -126.521Z" fill="white"/>
</g>
<path fill-rule="evenodd" clip-rule="evenodd" d="M260.633 338.204C260.355 339.147 259.967 339.98 259.467 340.812C259.134 341.312 258.801 341.812 258.468 342.256C258.079 342.755 257.635 343.199 257.191 343.588C256.137 344.532 254.915 345.309 253.528 345.919C251.474 346.863 249.031 347.418 246.311 347.585C259.467 314.112 123.801 193.878 -6.59106 163.847C-23.7436 159.906 -40.7851 157.519 -57.3825 157.075C-95.6843 156.076 -131.655 165.513 -160.964 190.27C-130.988 153.523 -90.9104 138.146 -47.3908 137.147C-31.5705 136.759 -15.3617 138.313 1.06921 141.366C125.467 164.569 258.024 276.754 261.465 329.433C261.521 332.542 261.299 335.428 260.633 338.204Z" fill="white"/>
<mask id="mask4_78_729" style="mask-type:luminance" maskUnits="userSpaceOnUse" x="-23" y="73" width="61" height="68">
<path d="M-1.983 140.812C-8.86621 139.591 -15.6939 138.703 -22.5216 138.037C-10.5315 110.282 5.45535 83.6373 37.873 73.4235C20.9981 86.4127 8.2308 112.78 -1.983 140.812Z" fill="white"/>
</mask>
<g mask="url(#mask4_78_729)">
<path d="M-42.7315 80.1947L31.8181 55.3263L58.0742 134.095L-16.5309 158.963L-42.7315 80.1947Z" fill="white"/>
</g>
</g>
</svg>
