<svg width="360" height="371" viewBox="0 0 360 371" fill="none" xmlns="http://www.w3.org/2000/svg">
<g opacity="0.3">
<mask id="mask0_65_362" style="mask-type:luminance" maskUnits="userSpaceOnUse" x="0" y="0" width="388" height="371">
<path d="M387.268 85.0198C378.442 73.7513 359.347 65.7024 340.751 62.3718C328.927 60.2624 317.326 60.0404 308.666 62.0387C215.687 83.7986 97.7846 210.305 72.6942 297.789C62.4249 333.537 86.6827 371.95 126.261 355.408C128.482 354.464 115.27 362.68 105.5 365.51C94.343 368.675 82.6305 370.784 71.1955 370.839C17.6286 371.117 -0.689671 330.373 0.365014 292.737C1.75276 244.222 34.337 193.153 55.2087 161.512C100.949 92.125 226.456 -19.8382 316.493 4.19757C355.683 14.6334 374.945 49.105 387.268 85.0198Z" fill="white"/>
</mask>
<g mask="url(#mask0_65_362)">
<path d="M389.88 -19.8367L-0.630966 -22.4457L-3.29541 371.951L387.271 374.505L389.88 -19.8367Z" fill="white"/>
</g>
<path fill-rule="evenodd" clip-rule="evenodd" d="M310.283 61.8218C245.504 2.09334 112.78 110.393 65.541 147.362C117.609 78.0307 232.681 -18.2232 316.778 4.25823C355.968 14.7496 375.23 49.2211 387.553 85.0804C378.727 73.8119 359.632 65.763 341.036 62.4324C329.878 60.4341 318.832 60.101 310.283 61.8218Z" fill="white"/>
<mask id="mask1_65_362" style="mask-type:luminance" maskUnits="userSpaceOnUse" x="22" y="156" width="143" height="215">
<path d="M41.2795 365.68C-22.6123 278.141 96.1786 178.723 164.012 156.52C120.325 201.538 85.1321 254.439 72.698 297.792C62.4287 333.54 86.6864 371.953 126.265 355.411C128.485 354.467 115.274 362.683 105.504 365.514C94.3468 368.678 82.6342 370.787 71.1992 370.843C59.6532 370.898 49.7169 369.011 41.2795 365.68Z" fill="white"/>
</mask>
<g mask="url(#mask1_65_362)">
<path d="M-127.084 238.007L47.9938 462.488L268.478 290.464L93.4563 65.9822L-127.084 238.007Z" fill="white"/>
</g>
<mask id="mask2_65_362" style="mask-type:luminance" maskUnits="userSpaceOnUse" x="322" y="73" width="280" height="298">
<path d="M547.087 366.405C507.786 380.171 472.093 358.134 445.504 327.992C416.639 295.241 396.489 248.835 383.5 206.592C370.51 164.516 353.358 97.0159 322.772 73.4243C322.717 73.4243 376.783 71.7035 393.325 110.505C398.321 122.273 406.203 134.318 413.419 148.584C425.743 173.064 452.72 221.746 483.417 256.551C502.735 278.477 524.106 294.575 542.369 296.795C597.046 303.457 574.564 205.149 500.625 198.155C554.803 195.879 573.676 216.639 587.387 235.291C618.139 277.09 596.602 349.086 547.087 366.405Z" fill="white"/>
</mask>
<g mask="url(#mask2_65_362)">
<path d="M744.76 137.926L386.167 -49.5862L196.102 314.003L554.75 501.459L744.76 137.926Z" fill="white"/>
</g>
<mask id="mask3_65_362" style="mask-type:luminance" maskUnits="userSpaceOnUse" x="99" y="137" width="423" height="211">
<path d="M521.607 190.326C521.607 190.326 432.348 150.137 330.099 208.644C256.271 250.943 197.708 299.625 167.455 324.215C133.816 351.526 102.897 354.191 99.5666 336.428C85.9112 264.098 394.323 34.288 521.607 190.326Z" fill="white"/>
</mask>
<g mask="url(#mask3_65_362)">
<path d="M156.858 -126.521L-32.1523 302.125L450.671 515.061L639.738 86.4144L156.858 -126.521Z" fill="white"/>
</g>
<path fill-rule="evenodd" clip-rule="evenodd" d="M100.011 338.204C100.289 339.147 100.677 339.98 101.177 340.813C101.51 341.312 101.843 341.812 102.176 342.256C102.565 342.755 103.009 343.2 103.453 343.588C104.507 344.532 105.729 345.309 107.116 345.92C109.17 346.863 111.613 347.418 114.333 347.585C101.177 314.112 236.843 193.878 367.235 163.848C384.388 159.906 401.429 157.519 418.027 157.075C456.328 156.076 492.299 165.513 521.608 190.27C491.633 153.523 451.554 138.147 408.035 137.147C392.215 136.759 376.006 138.313 359.575 141.366C235.177 164.569 102.62 276.754 99.1786 329.433C99.1231 332.542 99.3451 335.428 100.011 338.204Z" fill="white"/>
<mask id="mask4_65_362" style="mask-type:luminance" maskUnits="userSpaceOnUse" x="322" y="73" width="62" height="68">
<path d="M362.628 140.812C369.511 139.591 376.339 138.703 383.167 138.037C371.176 110.282 355.19 83.6373 322.772 73.4235C339.647 86.4127 352.414 112.78 362.628 140.812Z" fill="white"/>
</mask>
<g mask="url(#mask4_65_362)">
<path d="M403.377 80.1948L328.827 55.3264L302.571 134.095L377.176 158.963L403.377 80.1948Z" fill="white"/>
</g>
</g>
</svg>
