<svg width="122" height="122" viewBox="0 0 122 122" fill="none" xmlns="http://www.w3.org/2000/svg">
<path d="M35.5436 37.4448V16.3739C35.5436 14.9764 36.6765 13.8435 38.0741 13.8435H107.47C108.867 13.8435 110 14.9764 110 16.3739V109.157M110 109.157H34.5364C26.8347 109.157 20.5913 102.913 20.5913 95.2115V95.2115C20.5913 94.0563 21.5278 93.1197 22.6831 93.1197H35.5436M110 109.157C103.085 109.157 94.5372 109.157 93.6054 95.6557C93.5092 94.2615 92.389 93.1197 90.9915 93.1197H35.5436M35.5436 93.1197V62.5591" stroke="white" stroke-width="1.5" stroke-linejoin="round"/>
<path d="M22.7891 43.4372H65.6164M22.7891 43.4372V56.5626M22.7891 43.4372H19.5627C15.9382 43.4372 13 46.3755 13 49.9999V49.9999C13 53.6244 15.9382 56.5626 19.5627 56.5626H22.7891M65.6164 43.4372L71.1078 48.7921C71.7868 49.4542 71.7868 50.5456 71.1078 51.2077L65.6164 56.5626M65.6164 43.4372L62.8632 49.9999M65.6164 56.5626L62.8632 49.9999M65.6164 56.5626H22.7891M62.8632 49.9999H29.825M99.8783 41.9457V38.4537C99.8783 36.2072 97.1689 35.0747 95.5701 36.6529L54.7084 76.9905C53.0985 78.5798 54.2239 81.3218 56.4861 81.3218H59.8041M99.8783 41.9457H97.7369M99.8783 41.9457V48.8067M99.8783 48.8067H97.7369M99.8783 48.8067V55.0711M99.8783 55.0711H97.7369M99.8783 55.0711V61.6337M99.8783 61.6337H97.7369M99.8783 61.6337V67.8981M99.8783 67.8981H97.7369M99.8783 67.8981V74.6099M99.8783 74.6099V78.7913C99.8783 80.1888 98.7453 81.3218 97.3478 81.3218H93.1482M99.8783 74.6099H97.7369M93.1482 81.3218V79.2336M93.1482 81.3218H86.4182M86.4182 81.3218V79.2336M86.4182 81.3218H79.3823M79.3823 81.3218V79.2336M79.3823 81.3218H72.9582M72.9582 81.3218V79.2336M72.9582 81.3218H66.5341M66.5341 81.3218V79.2336M66.5341 81.3218H59.8041M59.8041 81.3218V79.2336M74.1819 71.4778L89.4773 56.5626V71.4778H74.1819Z" stroke="white" stroke-width="1.5" stroke-linecap="round" stroke-linejoin="round"/>
<path d="M51.7998 29.0261H92.2868M56.9362 23.1217H87.1504" stroke="white" stroke-width="1.5" stroke-linecap="round" stroke-linejoin="round"/>
<path d="M40.835 65.2957H49.2697M40.835 72.0435H46.0256" stroke="white" stroke-width="1.5" stroke-linecap="round" stroke-linejoin="round"/>
</svg>
