<svg width="204" height="34" viewBox="0 0 204 34" fill="none" xmlns="http://www.w3.org/2000/svg">
<mask id="mask0_26_135" style="mask-type:luminance" maskUnits="userSpaceOnUse" x="67" y="11" width="137" height="19">
<path d="M195.43 14.4842L198.606 22.0192H192.258L195.43 14.4842ZM186.991 29.3775H189.157L191.4 24.0343H199.44L201.707 29.3775H204L196.414 11.6409H194.576L186.991 29.3775ZM182.425 26.0493C181.218 27.0341 179.602 27.6099 177.915 27.6099C173.835 27.6099 171.037 24.7615 171.037 20.5547C171.037 16.373 173.759 13.4994 177.587 13.4994C179.425 13.4994 180.789 13.954 181.945 14.8075L182.93 13.1964C181.673 12.1106 179.829 11.4844 177.562 11.4844C172.042 11.4844 168.769 15.4892 168.769 20.5547C168.769 26.0493 172.421 29.6249 177.713 29.6249C179.905 29.6249 182.097 28.8674 183.284 27.6604L182.425 26.0493ZM159.346 29.3775H161.487V11.7369H159.346V29.3775ZM153.194 11.7369H151.028L145.205 26.2514L139.21 11.7369H136.917L144.351 29.4734H145.937L153.194 11.7369ZM128.625 29.3775H130.766V11.7369H128.625V29.3775ZM107.863 13.757H114.035V29.3775H116.176V13.757H122.347V11.7419H107.858V13.757H107.863ZM103.121 26.0493C101.914 27.0341 100.298 27.6099 98.611 27.6099C94.5304 27.6099 91.7326 24.7615 91.7326 20.5547C91.7326 16.373 94.4547 13.4994 98.2828 13.4994C100.121 13.4994 101.485 13.954 102.641 14.8075L103.626 13.1964C102.368 12.1106 100.525 11.4844 98.2575 11.4844C92.7376 11.4844 89.465 15.4892 89.465 20.5547C89.465 26.0493 93.1163 29.6249 98.409 29.6249C100.601 29.6249 102.793 28.8674 103.979 27.6604L103.121 26.0493ZM76.3848 14.4842L79.5614 22.0192H73.2132L76.3848 14.4842ZM67.9458 29.3775H70.1124L72.3547 24.0343H80.3947L82.6623 29.3775H84.9551L77.3696 11.6359H75.5313L67.9458 29.3775Z" fill="white"/>
</mask>
<g mask="url(#mask0_26_135)">
<path d="M204 11.4902H67.9458V29.6308H204V11.4902Z" fill="url(#paint0_linear_26_135)"/>
</g>
<mask id="mask1_26_135" style="mask-type:luminance" maskUnits="userSpaceOnUse" x="0" y="0" width="36" height="34">
<path d="M35.2042 7.65536C34.4012 6.63016 32.664 5.89787 30.9721 5.59486C29.8964 5.40295 28.8409 5.38274 28.0531 5.56455C19.5939 7.54426 8.8671 19.0538 6.58438 27.013C5.65009 30.2654 7.85705 33.7602 11.4579 32.2552C11.6599 32.1694 10.4579 32.9168 9.56909 33.1744C8.55399 33.4622 7.48838 33.6541 6.44803 33.6592C1.57452 33.6844 -0.0920658 29.9775 0.00388928 26.5535C0.130146 22.1395 3.09465 17.4933 4.99355 14.6146C9.15497 8.3018 20.5736 -1.88459 28.7652 0.302176C32.3306 1.25163 34.0831 4.38784 35.2042 7.65536Z" fill="white"/>
</mask>
<g mask="url(#mask1_26_135)">
<path d="M35.4419 -1.88373L-0.086691 -2.12109L-0.329102 33.7611L35.2046 33.9934L35.4419 -1.88373Z" fill="url(#paint1_linear_26_135)"/>
</g>
<path fill-rule="evenodd" clip-rule="evenodd" d="M28.2002 5.54482C22.3066 0.110729 10.2314 9.9638 5.93359 13.3273C10.6707 7.01949 21.1399 -1.73767 28.7911 0.30769C32.3566 1.26219 34.109 4.39841 35.2302 7.66088C34.4272 6.63567 32.6899 5.90339 30.9981 5.60037C29.983 5.41856 28.978 5.38826 28.2002 5.54482Z" fill="#FACE3B"/>
<mask id="mask2_26_135" style="mask-type:luminance" maskUnits="userSpaceOnUse" x="2" y="14" width="13" height="20">
<path d="M3.72632 33.1896C-2.08654 25.2253 8.72103 16.1803 14.8925 14.1602C10.9179 18.2559 7.71603 23.0688 6.58477 27.0131C5.65047 30.2655 7.85743 33.7602 11.4583 32.2553C11.6603 32.1694 10.4583 32.9168 9.56948 33.1744C8.55437 33.4623 7.48877 33.6542 6.44841 33.6592C5.39795 33.6643 4.49396 33.4926 3.72632 33.1896Z" fill="white"/>
</mask>
<g mask="url(#mask2_26_135)">
<path d="M-11.5913 21.5746L4.33723 41.9979L24.3969 26.3471L8.4734 5.92383L-11.5913 21.5746Z" fill="url(#paint2_linear_26_135)"/>
</g>
<mask id="mask3_26_135" style="mask-type:luminance" maskUnits="userSpaceOnUse" x="29" y="6" width="26" height="28">
<path d="M49.7446 33.256C46.169 34.5084 42.9216 32.5035 40.5026 29.7612C37.8764 26.7815 36.0432 22.5595 34.8614 18.7162C33.6797 14.8881 32.1191 8.74701 29.3364 6.60065C29.3314 6.60065 34.2503 6.44409 35.7553 9.97423C36.2098 11.0449 36.927 12.1408 37.5835 13.4387C38.7047 15.6659 41.1591 20.095 43.9519 23.2615C45.7094 25.2563 47.6537 26.7209 49.3153 26.9229C54.2898 27.5289 52.2444 18.5849 45.5175 17.9486C50.4465 17.7415 52.1636 19.6303 53.411 21.3272C56.2089 25.1301 54.2494 31.6803 49.7446 33.256Z" fill="white"/>
</mask>
<g mask="url(#mask3_26_135)">
<path d="M67.7288 12.469L35.1041 -4.59082L17.812 28.4884L50.4418 45.5432L67.7288 12.469Z" fill="url(#paint3_linear_26_135)"/>
</g>
<path fill-rule="evenodd" clip-rule="evenodd" d="M48.5325 28.2752C46.3053 28.659 41.6995 28.8307 36.5229 23.2249C37.5734 25.6238 38.8865 27.9267 40.5026 29.76C42.9216 32.5023 46.169 34.5072 49.7446 33.2548C54.2494 31.6791 56.2089 25.1238 53.411 21.3311C52.4464 20.018 51.1738 18.5888 48.3911 18.109C47.578 17.9676 46.6134 17.902 45.5175 17.9525C45.669 17.9676 45.8407 17.9878 45.9872 18.0131C47.3356 18.2201 48.482 18.7605 49.3809 19.4928C49.8809 19.9019 50.3304 20.3513 50.7041 20.8412C51.2344 21.5381 51.6232 22.3007 51.8404 23.0381C52.0323 23.6896 52.103 24.3562 52.0424 24.9218C52.0273 25.0531 52.0071 25.1794 51.9717 25.3056C51.9465 25.4066 51.9111 25.5077 51.8808 25.6036C51.396 27.0126 49.9617 28.0328 48.5325 28.2752Z" fill="#9440DB"/>
<mask id="mask4_26_135" style="mask-type:luminance" maskUnits="userSpaceOnUse" x="8" y="12" width="40" height="20">
<path d="M47.4264 17.2363C47.4264 17.2363 39.3056 13.5799 30.003 18.9029C23.2861 22.7512 17.9581 27.1803 15.2057 29.4176C12.1452 31.9023 9.33223 32.1447 9.02921 30.5286C7.78685 23.9481 35.8461 3.04004 47.4264 17.2363Z" fill="white"/>
</mask>
<g mask="url(#mask4_26_135)">
<path d="M14.2416 -11.5898L-2.95459 27.4083L40.9726 46.7811L58.1738 7.78298L14.2416 -11.5898Z" fill="url(#paint4_linear_26_135)"/>
</g>
<path fill-rule="evenodd" clip-rule="evenodd" d="M9.06966 30.69C9.09491 30.7758 9.13026 30.8516 9.17572 30.9273C9.20602 30.9728 9.23632 31.0183 9.26662 31.0587C9.30197 31.1041 9.34237 31.1445 9.38278 31.1799C9.47873 31.2657 9.58984 31.3364 9.7161 31.392C9.90296 31.4778 10.1252 31.5283 10.3726 31.5435C9.17571 28.4982 21.5186 17.5593 33.3816 14.8271C34.9422 14.4685 36.4926 14.2514 38.0026 14.211C41.4873 14.1201 44.7599 14.9786 47.4264 17.231C44.6993 13.8878 41.053 12.4888 37.0936 12.3979C35.6543 12.3626 34.1796 12.504 32.6847 12.7817C21.3671 14.8928 9.30702 25.0993 8.99391 29.892C8.98886 30.1749 9.00906 30.4375 9.06966 30.69Z" fill="url(#paint5_linear_26_135)"/>
<mask id="mask5_26_135" style="mask-type:luminance" maskUnits="userSpaceOnUse" x="29" y="6" width="6" height="7">
<path d="M32.9625 12.7316C33.5888 12.6205 34.2099 12.5397 34.8311 12.4791C33.7403 9.95396 32.2858 7.52983 29.3364 6.60059C30.8717 7.78235 32.0333 10.1812 32.9625 12.7316Z" fill="white"/>
</mask>
<g mask="url(#mask5_26_135)">
<path d="M36.6698 7.21662L29.8873 4.9541L27.4985 12.1204L34.2861 14.3829L36.6698 7.21662Z" fill="url(#paint6_linear_26_135)"/>
</g>
<mask id="mask6_26_135" style="mask-type:luminance" maskUnits="userSpaceOnUse" x="36" y="16" width="6" height="4">
<path d="M38.9976 16.0742C38.1896 16.1399 37.3411 16.251 36.4624 16.4328C37.4826 18.6398 38.7552 20.2306 41.3612 19.8771C40.4723 18.5741 39.6693 17.2509 38.9976 16.0742Z" fill="white"/>
</mask>
<g mask="url(#mask6_26_135)">
<path d="M41.3114 20.7046L41.7659 16.1139L36.5086 15.5938L36.0591 20.1895L41.3114 20.7046Z" fill="url(#paint7_linear_26_135)"/>
</g>
<defs>
<linearGradient id="paint0_linear_26_135" x1="135.968" y1="32.1735" x2="135.968" y2="4.95367" gradientUnits="userSpaceOnUse">
<stop stop-color="#472894"/>
<stop offset="1" stop-color="#8034D3"/>
</linearGradient>
<linearGradient id="paint1_linear_26_135" x1="29.2458" y1="16.0147" x2="-9.49122" y2="15.7572" gradientUnits="userSpaceOnUse">
<stop stop-color="#FACE3B"/>
<stop offset="1" stop-color="#FF1C22"/>
</linearGradient>
<linearGradient id="paint2_linear_26_135" x1="-20.9319" y1="-11.0863" x2="15.0214" y2="35.0132" gradientUnits="userSpaceOnUse">
<stop stop-color="#FACE3B"/>
<stop offset="1" stop-color="#FF1C22"/>
</linearGradient>
<linearGradient id="paint3_linear_26_135" x1="56.1991" y1="27.4976" x2="14.7657" y2="5.8383" gradientUnits="userSpaceOnUse">
<stop stop-color="#3D0CBB"/>
<stop offset="1" stop-color="#DC6BF6"/>
</linearGradient>
<linearGradient id="paint4_linear_26_135" x1="30.3774" y1="11.3255" x2="19.4073" y2="36.2017" gradientUnits="userSpaceOnUse">
<stop stop-color="#2ECDB9"/>
<stop offset="1" stop-color="#C4F57A"/>
</linearGradient>
<linearGradient id="paint5_linear_26_135" x1="47.573" y1="16.5392" x2="9.19093" y2="30.9325" gradientUnits="userSpaceOnUse">
<stop stop-color="#A7E9E1"/>
<stop offset="0.495" stop-color="#6FDEAF"/>
<stop offset="1" stop-color="#CAF5A6"/>
</linearGradient>
<linearGradient id="paint6_linear_26_135" x1="46.2104" y1="14.3738" x2="15.0393" y2="3.98733" gradientUnits="userSpaceOnUse">
<stop stop-color="#3D0CBB"/>
<stop offset="1" stop-color="#DC6BF6"/>
</linearGradient>
<linearGradient id="paint7_linear_26_135" x1="37.8642" y1="28.8473" x2="39.6972" y2="10.1668" gradientUnits="userSpaceOnUse">
<stop stop-color="#3D0CBB"/>
<stop offset="1" stop-color="#DC6BF6"/>
</linearGradient>
</defs>
</svg>
