<svg width="204" height="34" viewBox="0 0 204 34" fill="none" xmlns="http://www.w3.org/2000/svg">
<mask id="mask0_65_30" style="mask-type:luminance" maskUnits="userSpaceOnUse" x="67" y="11" width="137" height="19">
<path d="M195.43 14.4837L198.606 22.0187H192.258L195.43 14.4837ZM186.991 29.377H189.157L191.4 24.0338H199.44L201.707 29.377H204L196.414 11.6404H194.576L186.991 29.377ZM182.425 26.0489C181.218 27.0337 179.602 27.6094 177.915 27.6094C173.835 27.6094 171.037 24.761 171.037 20.5542C171.037 16.3725 173.759 13.4989 177.587 13.4989C179.425 13.4989 180.789 13.9535 181.945 14.807L182.93 13.1959C181.673 12.1101 179.829 11.4839 177.562 11.4839C172.042 11.4839 168.769 15.4887 168.769 20.5542C168.769 26.0489 172.421 29.6244 177.713 29.6244C179.905 29.6244 182.097 28.8669 183.284 27.6599L182.425 26.0489ZM159.346 29.377H161.487V11.7364H159.346V29.377ZM153.194 11.7364H151.028L145.205 26.2509L139.21 11.7364H136.917L144.351 29.4729H145.937L153.194 11.7364ZM128.625 29.377H130.766V11.7364H128.625V29.377ZM107.863 13.7565H114.035V29.377H116.176V13.7565H122.347V11.7415H107.858V13.7565H107.863ZM103.121 26.0489C101.914 27.0337 100.298 27.6094 98.611 27.6094C94.5304 27.6094 91.7326 24.761 91.7326 20.5542C91.7326 16.3725 94.4547 13.4989 98.2828 13.4989C100.121 13.4989 101.485 13.9535 102.641 14.807L103.626 13.1959C102.368 12.1101 100.525 11.4839 98.2575 11.4839C92.7376 11.4839 89.465 15.4887 89.465 20.5542C89.465 26.0489 93.1163 29.6244 98.409 29.6244C100.601 29.6244 102.793 28.8669 103.979 27.6599L103.121 26.0489ZM76.3848 14.4837L79.5614 22.0187H73.2132L76.3848 14.4837ZM67.9458 29.377H70.1124L72.3547 24.0338H80.3947L82.6623 29.377H84.9551L77.3696 11.6354H75.5313L67.9458 29.377Z" fill="white"/>
</mask>
<g mask="url(#mask0_65_30)">
<path d="M204 11.489H67.9458V29.6296H204V11.489Z" fill="url(#paint0_linear_65_30)"/>
</g>
<mask id="mask1_65_30" style="mask-type:luminance" maskUnits="userSpaceOnUse" x="0" y="0" width="36" height="34">
<path d="M35.2042 7.65536C34.4012 6.63016 32.664 5.89787 30.9721 5.59486C29.8964 5.40295 28.8409 5.38274 28.0531 5.56455C19.5939 7.54426 8.8671 19.0538 6.58438 27.013C5.65009 30.2654 7.85705 33.7602 11.4579 32.2552C11.6599 32.1694 10.4579 32.9168 9.56909 33.1744C8.55399 33.4622 7.48838 33.6541 6.44803 33.6592C1.57452 33.6844 -0.0920658 29.9775 0.00388928 26.5535C0.130146 22.1395 3.09465 17.4933 4.99355 14.6146C9.15497 8.3018 20.5736 -1.88459 28.7652 0.302176C32.3306 1.25163 34.0831 4.38784 35.2042 7.65536Z" fill="white"/>
</mask>
<g mask="url(#mask1_65_30)">
<path d="M35.4419 -1.88446L-0.086691 -2.12183L-0.329102 33.7603L35.2046 33.9926L35.4419 -1.88446Z" fill="url(#paint1_linear_65_30)"/>
</g>
<path fill-rule="evenodd" clip-rule="evenodd" d="M28.2002 5.54482C22.3066 0.110729 10.2314 9.9638 5.93359 13.3273C10.6707 7.01949 21.1399 -1.73767 28.7911 0.30769C32.3566 1.26219 34.109 4.39841 35.2302 7.66088C34.4272 6.63567 32.6899 5.90339 30.9981 5.60037C29.983 5.41856 28.978 5.38826 28.2002 5.54482Z" fill="#FACE3B"/>
<mask id="mask2_65_30" style="mask-type:luminance" maskUnits="userSpaceOnUse" x="2" y="14" width="13" height="20">
<path d="M3.72632 33.1898C-2.08654 25.2255 8.72103 16.1805 14.8925 14.1604C10.9179 18.2562 7.71603 23.0691 6.58477 27.0133C5.65047 30.2657 7.85743 33.7605 11.4583 32.2555C11.6603 32.1697 10.4583 32.9171 9.56948 33.1747C8.55437 33.4625 7.48877 33.6544 6.44841 33.6595C5.39795 33.6645 4.49396 33.4928 3.72632 33.1898Z" fill="white"/>
</mask>
<g mask="url(#mask2_65_30)">
<path d="M-11.5913 21.5741L4.33723 41.9974L24.3969 26.3466L8.4734 5.92334L-11.5913 21.5741Z" fill="url(#paint2_linear_65_30)"/>
</g>
<mask id="mask3_65_30" style="mask-type:luminance" maskUnits="userSpaceOnUse" x="29" y="6" width="26" height="28">
<path d="M49.7446 33.2557C46.169 34.5082 42.9216 32.5032 40.5026 29.7609C37.8764 26.7813 36.0432 22.5592 34.8614 18.716C33.6797 14.8879 32.1191 8.74677 29.3364 6.6004C29.3314 6.6004 34.2503 6.44385 35.7553 9.97398C36.2098 11.0446 36.927 12.1405 37.5835 13.4385C38.7047 15.6656 41.1591 20.0947 43.9519 23.2612C45.7094 25.2561 47.6537 26.7207 49.3153 26.9227C54.2898 27.5287 52.2444 18.5847 45.5175 17.9484C50.4465 17.7413 52.1636 19.6301 53.411 21.327C56.2089 25.1298 54.2494 31.68 49.7446 33.2557Z" fill="white"/>
</mask>
<g mask="url(#mask3_65_30)">
<path d="M67.7288 12.4687L35.1041 -4.59106L17.812 28.4882L50.4418 45.5429L67.7288 12.4687Z" fill="url(#paint3_linear_65_30)"/>
</g>
<path fill-rule="evenodd" clip-rule="evenodd" d="M48.5325 28.2759C46.3053 28.6597 41.6995 28.8315 36.5229 23.2257C37.5734 25.6245 38.8865 27.9275 40.5026 29.7607C42.9216 32.503 46.169 34.508 49.7446 33.2555C54.2494 31.6798 56.2089 25.1246 53.411 21.3318C52.4464 20.0187 51.1738 18.5895 48.3911 18.1097C47.578 17.9683 46.6134 17.9027 45.5175 17.9532C45.669 17.9683 45.8407 17.9885 45.9872 18.0138C47.3356 18.2208 48.482 18.7612 49.3809 19.4935C49.8809 19.9026 50.3304 20.3521 50.7041 20.8419C51.2344 21.5389 51.6232 22.3015 51.8404 23.0388C52.0323 23.6903 52.103 24.3569 52.0424 24.9226C52.0273 25.0539 52.0071 25.1801 51.9717 25.3064C51.9465 25.4074 51.9111 25.5084 51.8808 25.6043C51.396 27.0134 49.9617 28.0335 48.5325 28.2759Z" fill="#9440DB"/>
<mask id="mask4_65_30" style="mask-type:luminance" maskUnits="userSpaceOnUse" x="8" y="12" width="40" height="20">
<path d="M47.4264 17.2361C47.4264 17.2361 39.3056 13.5797 30.003 18.9027C23.2861 22.751 17.9581 27.1801 15.2057 29.4173C12.1452 31.9021 9.33223 32.1445 9.02921 30.5284C7.78685 23.9479 35.8461 3.0398 47.4264 17.2361Z" fill="white"/>
</mask>
<g mask="url(#mask4_65_30)">
<path d="M14.2416 -11.5906L-2.95459 27.4076L40.9726 46.7804L58.1738 7.78224L14.2416 -11.5906Z" fill="url(#paint4_linear_65_30)"/>
</g>
<path fill-rule="evenodd" clip-rule="evenodd" d="M9.06966 30.69C9.09491 30.7758 9.13026 30.8516 9.17572 30.9273C9.20602 30.9728 9.23632 31.0183 9.26662 31.0587C9.30197 31.1041 9.34237 31.1445 9.38278 31.1799C9.47873 31.2657 9.58984 31.3364 9.7161 31.392C9.90296 31.4778 10.1252 31.5283 10.3726 31.5435C9.17571 28.4982 21.5186 17.5593 33.3816 14.8271C34.9422 14.4685 36.4926 14.2514 38.0026 14.211C41.4873 14.1201 44.7599 14.9786 47.4264 17.231C44.6993 13.8878 41.053 12.4888 37.0936 12.3979C35.6543 12.3626 34.1796 12.504 32.6847 12.7817C21.3671 14.8928 9.30702 25.0993 8.99391 29.892C8.98886 30.1749 9.00906 30.4375 9.06966 30.69Z" fill="url(#paint5_linear_65_30)"/>
<mask id="mask5_65_30" style="mask-type:luminance" maskUnits="userSpaceOnUse" x="29" y="6" width="6" height="7">
<path d="M32.9625 12.7314C33.5888 12.6203 34.2099 12.5395 34.8311 12.4789C33.7403 9.95372 32.2858 7.52959 29.3364 6.60034C30.8717 7.7821 32.0333 10.181 32.9625 12.7314Z" fill="white"/>
</mask>
<g mask="url(#mask5_65_30)">
<path d="M36.6698 7.21638L29.8873 4.95386L27.4985 12.1202L34.2861 14.3827L36.6698 7.21638Z" fill="url(#paint6_linear_65_30)"/>
</g>
<mask id="mask6_65_30" style="mask-type:luminance" maskUnits="userSpaceOnUse" x="36" y="16" width="6" height="4">
<path d="M38.9976 16.0747C38.1896 16.1404 37.3411 16.2515 36.4624 16.4333C37.4826 18.6402 38.7552 20.2311 41.3612 19.8776C40.4723 18.5746 39.6693 17.2514 38.9976 16.0747Z" fill="white"/>
</mask>
<g mask="url(#mask6_65_30)">
<path d="M41.3114 20.7058L41.7659 16.1152L36.5086 15.595L36.0591 20.1907L41.3114 20.7058Z" fill="url(#paint7_linear_65_30)"/>
</g>
<defs>
<linearGradient id="paint0_linear_65_30" x1="135.968" y1="32.1723" x2="135.968" y2="4.95245" gradientUnits="userSpaceOnUse">
<stop stop-color="#472894"/>
<stop offset="1" stop-color="#8034D3"/>
</linearGradient>
<linearGradient id="paint1_linear_65_30" x1="29.2458" y1="16.0139" x2="-9.49122" y2="15.7565" gradientUnits="userSpaceOnUse">
<stop stop-color="#FACE3B"/>
<stop offset="1" stop-color="#FF1C22"/>
</linearGradient>
<linearGradient id="paint2_linear_65_30" x1="-20.9319" y1="-11.0868" x2="15.0214" y2="35.0127" gradientUnits="userSpaceOnUse">
<stop stop-color="#FACE3B"/>
<stop offset="1" stop-color="#FF1C22"/>
</linearGradient>
<linearGradient id="paint3_linear_65_30" x1="56.1991" y1="27.4974" x2="14.7657" y2="5.83806" gradientUnits="userSpaceOnUse">
<stop stop-color="#3D0CBB"/>
<stop offset="1" stop-color="#DC6BF6"/>
</linearGradient>
<linearGradient id="paint4_linear_65_30" x1="30.3774" y1="11.3248" x2="19.4073" y2="36.2009" gradientUnits="userSpaceOnUse">
<stop stop-color="#2ECDB9"/>
<stop offset="1" stop-color="#C4F57A"/>
</linearGradient>
<linearGradient id="paint5_linear_65_30" x1="47.573" y1="16.5392" x2="9.19093" y2="30.9325" gradientUnits="userSpaceOnUse">
<stop stop-color="#A7E9E1"/>
<stop offset="0.495" stop-color="#6FDEAF"/>
<stop offset="1" stop-color="#CAF5A6"/>
</linearGradient>
<linearGradient id="paint6_linear_65_30" x1="46.2104" y1="14.3735" x2="15.0393" y2="3.98709" gradientUnits="userSpaceOnUse">
<stop stop-color="#3D0CBB"/>
<stop offset="1" stop-color="#DC6BF6"/>
</linearGradient>
<linearGradient id="paint7_linear_65_30" x1="37.8642" y1="28.8485" x2="39.6972" y2="10.168" gradientUnits="userSpaceOnUse">
<stop stop-color="#3D0CBB"/>
<stop offset="1" stop-color="#DC6BF6"/>
</linearGradient>
</defs>
</svg>
