<svg width="90" height="90" viewBox="0 0 90 90" fill="none" xmlns="http://www.w3.org/2000/svg">
<path d="M36 68H10.3737C9.33887 68 8.5 67.1611 8.5 66.1263V57.5M36 68L33.5 77.5M36 68H53.5M33.5 77.5H56.5M33.5 77.5H28.5M53.5 68H79.6263C80.6611 68 81.5 67.1611 81.5 66.1263V57.5M53.5 68L56.5 77.5M56.5 77.5H61.5M8.5 57.5V14.3737C8.5 13.3389 9.33887 12.5 10.3737 12.5H79.6263C80.6611 12.5 81.5 13.3389 81.5 14.3737V57.5M8.5 57.5H81.5M43.5 43V50M48.5 39.5V50M53.5 35.5V50M58.5 37.5V50M63 34V50M68 36.5V50M73 31V50M73 23.5L69.0787 28.9898C68.4813 29.8262 67.3216 30.0251 66.4796 29.4357L64.3581 27.9507C63.5827 27.4079 62.5242 27.5287 61.891 28.2323L59.6827 30.6859C59.0187 31.4237 57.8946 31.5156 57.1195 30.8956L54.7418 28.9935C54.0256 28.4204 52.9997 28.4502 52.3179 29.0639L43.5 37M20 45H32.5M20 49.5H32.5M25.5 41C30.4095 41 34.4492 37.2758 34.9482 32.4984C35.0055 31.9491 34.5523 31.5 34 31.5H26.5C25.9477 31.5 25.5 31.0523 25.5 30.5V23C25.5 22.4477 25.0509 21.9945 24.5016 22.0518C19.7242 22.5508 16 26.5905 16 31.5C16 36.7467 20.2533 41 25.5 41ZM38 27H31.5C30.9477 27 30.5 26.5523 30.5 26V19.6245C30.5 19.026 31.0255 18.5577 31.6119 18.678C36.7466 19.731 38.549 23.4979 38.9221 26.0049C39.0034 26.5511 38.5523 27 38 27Z" stroke="black" stroke-linecap="round" stroke-linejoin="round"/>
<path d="M36 68H10.3737C9.33887 68 8.5 67.1611 8.5 66.1263V57.5M36 68L33.5 77.5M36 68H53.5M33.5 77.5H56.5M33.5 77.5H28.5M53.5 68H79.6263C80.6611 68 81.5 67.1611 81.5 66.1263V57.5M53.5 68L56.5 77.5M56.5 77.5H61.5M8.5 57.5V14.3737C8.5 13.3389 9.33887 12.5 10.3737 12.5H79.6263C80.6611 12.5 81.5 13.3389 81.5 14.3737V57.5M8.5 57.5H81.5M43.5 43V50M48.5 39.5V50M53.5 35.5V50M58.5 37.5V50M63 34V50M68 36.5V50M73 31V50M73 23.5L69.0787 28.9898C68.4813 29.8262 67.3216 30.0251 66.4796 29.4357L64.3581 27.9507C63.5827 27.4079 62.5242 27.5287 61.891 28.2323L59.6827 30.6859C59.0187 31.4237 57.8946 31.5156 57.1195 30.8956L54.7418 28.9935C54.0256 28.4204 52.9997 28.4502 52.3179 29.0639L43.5 37M20 45H32.5M20 49.5H32.5M25.5 41C30.4095 41 34.4492 37.2758 34.9482 32.4984C35.0055 31.9491 34.5523 31.5 34 31.5H26.5C25.9477 31.5 25.5 31.0523 25.5 30.5V23C25.5 22.4477 25.0509 21.9945 24.5016 22.0518C19.7242 22.5508 16 26.5905 16 31.5C16 36.7467 20.2533 41 25.5 41ZM38 27H31.5C30.9477 27 30.5 26.5523 30.5 26V19.6245C30.5 19.026 31.0255 18.5577 31.6119 18.678C36.7466 19.731 38.549 23.4979 38.9221 26.0049C39.0034 26.5511 38.5523 27 38 27Z" stroke="url(#paint0_linear_77_669)" stroke-linecap="round" stroke-linejoin="round"/>
<defs>
<linearGradient id="paint0_linear_77_669" x1="8.5" y1="10.443" x2="86.85" y2="35.4507" gradientUnits="userSpaceOnUse">
<stop stop-color="#32CEB8"/>
<stop offset="1" stop-color="#61DAA4"/>
</linearGradient>
</defs>
</svg>
