<svg width="90" height="90" viewBox="0 0 90 90" fill="none" xmlns="http://www.w3.org/2000/svg">
<path d="M9.28028 29.2823V28.0471C9.28028 27.446 8.79296 26.9587 8.19183 26.9587H4.26911C3.66798 26.9587 3.18066 27.446 3.18066 28.0471V47.0736C3.18066 47.6748 3.66798 48.1621 4.26911 48.1621H8.19183C8.79296 48.1621 9.28028 47.6748 9.28028 47.0736V45.8384M9.28028 29.2823H13.1233C13.2707 29.2823 13.4168 29.2536 13.5497 29.1897C14.2937 28.8323 15.6171 28.0157 16.2513 26.9587C17.0827 25.573 18.9718 23.6585 21.9186 23.4857C22.1566 23.4718 22.3509 23.6665 22.3509 23.9049V25.3568C22.3509 26.4639 23.2484 27.3615 24.3556 27.3615H35.1363C36.5769 27.3615 37.7439 28.5308 37.7411 29.9713V29.9713C37.7383 31.4079 36.5729 32.571 35.1363 32.571H24.3841H34.4016C35.8912 32.571 37.0988 33.7786 37.0988 35.2683V35.2683C37.0988 36.7579 35.8912 37.9655 34.4016 37.9655H24.3841H33.0826C34.5347 37.9655 35.7119 39.1428 35.7119 40.5949V40.5949C35.7119 42.0471 34.5347 43.2243 33.0826 43.2243H24.3841H31.5003C33.0242 43.2243 34.2597 44.4597 34.2597 45.9836V45.9836C34.2597 47.5076 33.0257 48.743 31.5018 48.743C28.356 48.743 24.064 48.743 22.3509 48.743C20.5717 48.743 17.4303 47.6078 15.1431 46.6411C13.9491 46.1366 12.6741 45.8384 11.3779 45.8384H9.28028M9.28028 29.2823V45.8384M22.3509 22.4095V16.0089C22.3509 15.4077 22.8382 14.9204 23.4393 14.9204H55.7922M55.7922 14.9204L67.8304 26.9587M55.7922 14.9204V25.8702C55.7922 26.4713 56.2795 26.9587 56.8806 26.9587H67.8304M67.8304 26.9587V46.6871M22.3509 50.4728V73.9913C22.3509 74.5924 22.8382 75.0797 23.4393 75.0797H66.7419C67.3431 75.0797 67.8304 74.5924 67.8304 73.9913V72.9443M67.8304 62.8174V72.9443M80.3991 54.1762V52.7957C80.3991 52.1946 80.8864 51.7072 81.4875 51.7072H85.7298C86.331 51.7072 86.8183 52.1946 86.8183 52.7957V70.6994C86.8183 71.3005 86.331 71.7878 85.7298 71.7878H81.4875C80.8864 71.7878 80.3991 71.3005 80.3991 70.6994V69.861M80.3991 54.1762C79.1929 54.2656 76.5678 54.2319 75.7173 53.3813C74.7536 52.4176 72.3049 48.6005 68.9113 47.8944C68.3228 47.7719 67.8385 48.2718 67.776 48.8697C67.4834 51.6718 66.0589 52.9671 64.7167 53.3749C64.7025 53.3792 64.6878 53.3813 64.6729 53.3813H59.5034C57.8103 53.3813 56.4378 54.7538 56.4378 56.4469V56.4469C56.4378 58.14 57.8103 59.5125 59.5034 59.5125H66.5852C67.3706 59.5125 68.1016 59.8858 68.6326 60.4644C70.5149 62.5156 72.5204 63.5292 73.3782 63.6944M80.3991 54.1762V69.861M80.3991 69.861H75.9225C75.7869 69.861 75.6524 69.8863 75.5262 69.9357L67.8304 72.9443M28.881 60.2457H41.1459M28.881 65.5832H41.1459" stroke="black" stroke-linecap="round" stroke-linejoin="round"/>
<path d="M9.28028 29.2823V28.0471C9.28028 27.446 8.79296 26.9587 8.19183 26.9587H4.26911C3.66798 26.9587 3.18066 27.446 3.18066 28.0471V47.0736C3.18066 47.6748 3.66798 48.1621 4.26911 48.1621H8.19183C8.79296 48.1621 9.28028 47.6748 9.28028 47.0736V45.8384M9.28028 29.2823H13.1233C13.2707 29.2823 13.4168 29.2536 13.5497 29.1897C14.2937 28.8323 15.6171 28.0157 16.2513 26.9587C17.0827 25.573 18.9718 23.6585 21.9186 23.4857C22.1566 23.4718 22.3509 23.6665 22.3509 23.9049V25.3568C22.3509 26.4639 23.2484 27.3615 24.3556 27.3615H35.1363C36.5769 27.3615 37.7439 28.5308 37.7411 29.9713V29.9713C37.7383 31.4079 36.5729 32.571 35.1363 32.571H24.3841H34.4016C35.8912 32.571 37.0988 33.7786 37.0988 35.2683V35.2683C37.0988 36.7579 35.8912 37.9655 34.4016 37.9655H24.3841H33.0826C34.5347 37.9655 35.7119 39.1428 35.7119 40.5949V40.5949C35.7119 42.0471 34.5347 43.2243 33.0826 43.2243H24.3841H31.5003C33.0242 43.2243 34.2597 44.4597 34.2597 45.9836V45.9836C34.2597 47.5076 33.0257 48.743 31.5018 48.743C28.356 48.743 24.064 48.743 22.3509 48.743C20.5717 48.743 17.4303 47.6078 15.1431 46.6411C13.9491 46.1366 12.6741 45.8384 11.3779 45.8384H9.28028M9.28028 29.2823V45.8384M22.3509 22.4095V16.0089C22.3509 15.4077 22.8382 14.9204 23.4393 14.9204H55.7922M55.7922 14.9204L67.8304 26.9587M55.7922 14.9204V25.8702C55.7922 26.4713 56.2795 26.9587 56.8806 26.9587H67.8304M67.8304 26.9587V46.6871M22.3509 50.4728V73.9913C22.3509 74.5924 22.8382 75.0797 23.4393 75.0797H66.7419C67.3431 75.0797 67.8304 74.5924 67.8304 73.9913V72.9443M67.8304 62.8174V72.9443M80.3991 54.1762V52.7957C80.3991 52.1946 80.8864 51.7072 81.4875 51.7072H85.7298C86.331 51.7072 86.8183 52.1946 86.8183 52.7957V70.6994C86.8183 71.3005 86.331 71.7878 85.7298 71.7878H81.4875C80.8864 71.7878 80.3991 71.3005 80.3991 70.6994V69.861M80.3991 54.1762C79.1929 54.2656 76.5678 54.2319 75.7173 53.3813C74.7536 52.4176 72.3049 48.6005 68.9113 47.8944C68.3228 47.7719 67.8385 48.2718 67.776 48.8697C67.4834 51.6718 66.0589 52.9671 64.7167 53.3749C64.7025 53.3792 64.6878 53.3813 64.6729 53.3813H59.5034C57.8103 53.3813 56.4378 54.7538 56.4378 56.4469V56.4469C56.4378 58.14 57.8103 59.5125 59.5034 59.5125H66.5852C67.3706 59.5125 68.1016 59.8858 68.6326 60.4644C70.5149 62.5156 72.5204 63.5292 73.3782 63.6944M80.3991 54.1762V69.861M80.3991 69.861H75.9225C75.7869 69.861 75.6524 69.8863 75.5262 69.9357L67.8304 72.9443M28.881 60.2457H41.1459M28.881 65.5832H41.1459" stroke="url(#paint0_linear_77_671)" stroke-linecap="round" stroke-linejoin="round"/>
<defs>
<linearGradient id="paint0_linear_77_671" x1="3.18067" y1="13.0166" x2="88.7363" y2="46.8209" gradientUnits="userSpaceOnUse">
<stop stop-color="#32CEB8"/>
<stop offset="1" stop-color="#61DAA4"/>
</linearGradient>
</defs>
</svg>
