<svg width="90" height="90" viewBox="0 0 90 90" fill="none" xmlns="http://www.w3.org/2000/svg">
<path d="M24.2723 31.401V11.0519C24.2723 10.0171 25.1111 9.17822 26.146 9.17822H56.7772M56.7772 9.17822L79 30.4059M56.7772 9.17822V28.5323C56.7772 29.5671 57.6161 30.4059 58.6509 30.4059H79M79 30.4059V78.9481C79 79.9829 78.1611 80.8218 77.1263 80.8218H52.1337M28.5842 20.4555H52.797M28.5842 30.4059H52.797M52.797 40.0248H73.3614M52.797 49.9753H73.3614M52.797 59.9257H73.3614M52.797 69.5446H73.3614M42.5149 64.1212V73.6412C42.5149 74.676 41.676 75.5149 40.6412 75.5149H38.7499C37.7151 75.5149 36.8762 74.676 36.8762 73.6412V64.1212C36.8762 63.0864 37.7151 62.2475 38.7499 62.2475H40.6412C41.676 62.2475 42.5149 63.0864 42.5149 64.1212ZM32.896 72.745V73.6412C32.896 74.676 32.0572 75.5149 31.0224 75.5149H28.7994C27.7646 75.5149 26.9257 74.676 26.9257 73.6412V72.745C26.9257 71.7102 27.7646 70.8713 28.7994 70.8713H31.0224C32.0572 70.8713 32.896 71.7102 32.896 72.745ZM22.9455 72.745V73.6412C22.9455 74.676 22.1067 75.5149 21.0719 75.5149H19.1806C18.1458 75.5149 17.3069 74.676 17.3069 73.6412V72.745C17.3069 71.7102 18.1458 70.8713 19.1806 70.8713H21.0719C22.1067 70.8713 22.9455 71.7102 22.9455 72.745ZM32.896 64.1212V65.3491C32.896 66.3839 32.0572 67.2228 31.0224 67.2228H28.7994C27.7646 67.2228 26.9257 66.3839 26.9257 65.3491V64.1212C26.9257 63.0864 27.7646 62.2475 28.7994 62.2475H31.0224C32.0572 62.2475 32.896 63.0864 32.896 64.1212ZM22.9455 64.1212V65.3491C22.9455 66.3839 22.1067 67.2228 21.0719 67.2228H19.1806C18.1458 67.2228 17.3069 66.3839 17.3069 65.3491V64.1212C17.3069 63.0864 18.1458 62.2475 19.1806 62.2475H21.0719C22.1067 62.2475 22.9455 63.0864 22.9455 64.1212ZM42.5149 55.4974V56.3937C42.5149 57.4285 41.676 58.2673 40.6412 58.2673H38.7499C37.7151 58.2673 36.8762 57.4285 36.8762 56.3937V55.4974C36.8762 54.4626 37.7151 53.6238 38.7499 53.6238H40.6412C41.676 53.6238 42.5149 54.4626 42.5149 55.4974ZM32.896 55.4974V56.3937C32.896 57.4285 32.0572 58.2673 31.0224 58.2673H28.7994C27.7646 58.2673 26.9257 57.4285 26.9257 56.3937V55.4974C26.9257 54.4626 27.7646 53.6238 28.7994 53.6238H31.0224C32.0572 53.6238 32.896 54.4626 32.896 55.4974ZM22.9455 55.4974V56.3937C22.9455 57.4285 22.1067 58.2673 21.0719 58.2673H19.1806C18.1458 58.2673 17.3069 57.4285 17.3069 56.3937V55.4974C17.3069 54.4626 18.1458 53.6238 19.1806 53.6238H21.0719C22.1067 53.6238 22.9455 54.4626 22.9455 55.4974ZM42.5149 43.2252V46.7748C42.5149 47.8096 41.676 48.6485 40.6412 48.6485H19.1806C18.1458 48.6485 17.3069 47.8096 17.3069 46.7748V43.2252C17.3069 42.1904 18.1458 41.3515 19.1806 41.3515H40.6412C41.676 41.3515 42.5149 42.1904 42.5149 43.2252ZM13.8737 80.8218H45.2847C46.3195 80.8218 47.1584 79.9829 47.1584 78.9481V38.5816C47.1584 37.5468 46.3195 36.7079 45.2847 36.7079H13.8737C12.8389 36.7079 12 37.5468 12 38.5816V78.9481C12 79.9829 12.8389 80.8218 13.8737 80.8218Z" stroke="black" stroke-linecap="round" stroke-linejoin="round"/>
<path d="M24.2723 31.401V11.0519C24.2723 10.0171 25.1111 9.17822 26.146 9.17822H56.7772M56.7772 9.17822L79 30.4059M56.7772 9.17822V28.5323C56.7772 29.5671 57.6161 30.4059 58.6509 30.4059H79M79 30.4059V78.9481C79 79.9829 78.1611 80.8218 77.1263 80.8218H52.1337M28.5842 20.4555H52.797M28.5842 30.4059H52.797M52.797 40.0248H73.3614M52.797 49.9753H73.3614M52.797 59.9257H73.3614M52.797 69.5446H73.3614M42.5149 64.1212V73.6412C42.5149 74.676 41.676 75.5149 40.6412 75.5149H38.7499C37.7151 75.5149 36.8762 74.676 36.8762 73.6412V64.1212C36.8762 63.0864 37.7151 62.2475 38.7499 62.2475H40.6412C41.676 62.2475 42.5149 63.0864 42.5149 64.1212ZM32.896 72.745V73.6412C32.896 74.676 32.0572 75.5149 31.0224 75.5149H28.7994C27.7646 75.5149 26.9257 74.676 26.9257 73.6412V72.745C26.9257 71.7102 27.7646 70.8713 28.7994 70.8713H31.0224C32.0572 70.8713 32.896 71.7102 32.896 72.745ZM22.9455 72.745V73.6412C22.9455 74.676 22.1067 75.5149 21.0719 75.5149H19.1806C18.1458 75.5149 17.3069 74.676 17.3069 73.6412V72.745C17.3069 71.7102 18.1458 70.8713 19.1806 70.8713H21.0719C22.1067 70.8713 22.9455 71.7102 22.9455 72.745ZM32.896 64.1212V65.3491C32.896 66.3839 32.0572 67.2228 31.0224 67.2228H28.7994C27.7646 67.2228 26.9257 66.3839 26.9257 65.3491V64.1212C26.9257 63.0864 27.7646 62.2475 28.7994 62.2475H31.0224C32.0572 62.2475 32.896 63.0864 32.896 64.1212ZM22.9455 64.1212V65.3491C22.9455 66.3839 22.1067 67.2228 21.0719 67.2228H19.1806C18.1458 67.2228 17.3069 66.3839 17.3069 65.3491V64.1212C17.3069 63.0864 18.1458 62.2475 19.1806 62.2475H21.0719C22.1067 62.2475 22.9455 63.0864 22.9455 64.1212ZM42.5149 55.4974V56.3937C42.5149 57.4285 41.676 58.2673 40.6412 58.2673H38.7499C37.7151 58.2673 36.8762 57.4285 36.8762 56.3937V55.4974C36.8762 54.4626 37.7151 53.6238 38.7499 53.6238H40.6412C41.676 53.6238 42.5149 54.4626 42.5149 55.4974ZM32.896 55.4974V56.3937C32.896 57.4285 32.0572 58.2673 31.0224 58.2673H28.7994C27.7646 58.2673 26.9257 57.4285 26.9257 56.3937V55.4974C26.9257 54.4626 27.7646 53.6238 28.7994 53.6238H31.0224C32.0572 53.6238 32.896 54.4626 32.896 55.4974ZM22.9455 55.4974V56.3937C22.9455 57.4285 22.1067 58.2673 21.0719 58.2673H19.1806C18.1458 58.2673 17.3069 57.4285 17.3069 56.3937V55.4974C17.3069 54.4626 18.1458 53.6238 19.1806 53.6238H21.0719C22.1067 53.6238 22.9455 54.4626 22.9455 55.4974ZM42.5149 43.2252V46.7748C42.5149 47.8096 41.676 48.6485 40.6412 48.6485H19.1806C18.1458 48.6485 17.3069 47.8096 17.3069 46.7748V43.2252C17.3069 42.1904 18.1458 41.3515 19.1806 41.3515H40.6412C41.676 41.3515 42.5149 42.1904 42.5149 43.2252ZM13.8737 80.8218H45.2847C46.3195 80.8218 47.1584 79.9829 47.1584 78.9481V38.5816C47.1584 37.5468 46.3195 36.7079 45.2847 36.7079H13.8737C12.8389 36.7079 12 37.5468 12 38.5816V78.9481C12 79.9829 12.8389 80.8218 13.8737 80.8218Z" stroke="url(#paint0_linear_77_667)" stroke-linecap="round" stroke-linejoin="round"/>
<defs>
<linearGradient id="paint0_linear_77_667" x1="12" y1="6.91102" x2="86.0082" y2="26.5809" gradientUnits="userSpaceOnUse">
<stop stop-color="#32CEB8"/>
<stop offset="1" stop-color="#61DAA4"/>
</linearGradient>
</defs>
</svg>
