<svg width="90" height="90" viewBox="0 0 90 90" fill="none" xmlns="http://www.w3.org/2000/svg">
<path d="M39.6763 26.4492L42.9647 29.7374C43.1219 29.8947 43.3769 29.8947 43.5341 29.7374L50.0338 23.2378" stroke="black" stroke-linecap="round" stroke-linejoin="round"/>
<path d="M39.6763 26.4492L42.9647 29.7374C43.1219 29.8947 43.3769 29.8947 43.5341 29.7374L50.0338 23.2378" stroke="url(#paint0_linear_77_673)" stroke-linecap="round" stroke-linejoin="round"/>
<path d="M14.5562 84.0555V5.94483C14.5562 4.92331 15.3843 4.09521 16.4058 4.09521H73.5947C74.6163 4.09521 75.4444 4.92331 75.4444 5.94482V84.0555C75.4444 85.0771 74.6163 85.9052 73.5947 85.9052H16.4058C15.3843 85.9052 14.5562 85.0771 14.5562 84.0555Z" stroke="url(#paint1_linear_77_673)" stroke-linecap="round" stroke-linejoin="round"/>
<path d="M28.4282 54.6455H38.6434M41.9067 54.6455H63.6848M28.4282 60.0368H33.465M36.1606 60.0368H63.6848M28.4282 65.7118H44.1767M46.6595 65.7118H63.6848M47.4399 72.3091H59.4285M51.3415 77.8423H59.4285" stroke="black" stroke-linecap="round" stroke-linejoin="round"/>
<path d="M28.4282 54.6455H38.6434M41.9067 54.6455H63.6848M28.4282 60.0368H33.465M36.1606 60.0368H63.6848M28.4282 65.7118H44.1767M46.6595 65.7118H63.6848M47.4399 72.3091H59.4285M51.3415 77.8423H59.4285" stroke="url(#paint2_linear_77_673)" stroke-linecap="round" stroke-linejoin="round"/>
<path d="M34.3172 38.1875L30.9959 45.2856C30.8643 45.5669 31.0872 45.885 31.3965 45.8573L35.1828 45.5182C35.3457 45.5037 35.5012 45.589 35.5764 45.7343L37.215 48.9023C37.3666 49.1954 37.7869 49.1917 37.9334 48.8962L41.6238 41.4506" stroke="black" stroke-linecap="round" stroke-linejoin="round"/>
<path d="M34.3172 38.1875L30.9959 45.2856C30.8643 45.5669 31.0872 45.885 31.3965 45.8573L35.1828 45.5182C35.3457 45.5037 35.5012 45.589 35.5764 45.7343L37.215 48.9023C37.3666 49.1954 37.7869 49.1917 37.9334 48.8962L41.6238 41.4506" stroke="url(#paint3_linear_77_673)" stroke-linecap="round" stroke-linejoin="round"/>
<path d="M55.4618 38.3599L58.7023 45.2852C58.8339 45.5665 58.611 45.8846 58.3017 45.8569L54.5154 45.5178C54.3525 45.5032 54.197 45.5886 54.1219 45.7339L52.478 48.9119C52.3275 49.203 51.9107 49.2019 51.7617 48.9099L48.1082 41.7483" stroke="black" stroke-linecap="round" stroke-linejoin="round"/>
<path d="M55.4618 38.3599L58.7023 45.2852C58.8339 45.5665 58.611 45.8846 58.3017 45.8569L54.5154 45.5178C54.3525 45.5032 54.197 45.5886 54.1219 45.7339L52.478 48.9119C52.3275 49.203 51.9107 49.2019 51.7617 48.9099L48.1082 41.7483" stroke="url(#paint4_linear_77_673)" stroke-linecap="round" stroke-linejoin="round"/>
<path d="M30.0351 29.6738L29.5798 29.475L30.0351 29.6738L30.5639 28.4628C30.777 27.9747 30.7349 27.4127 30.4514 26.9617L29.748 25.8431C29.6056 25.6165 29.6275 25.3235 29.8022 25.1207L30.6644 24.1194C31.012 23.7158 31.1374 23.1663 30.9994 22.6519L30.657 21.3756C30.5876 21.1171 30.695 20.8436 30.9217 20.7012L32.0407 19.9986L31.7748 19.5751L32.0407 19.9986C32.4918 19.7153 32.7736 19.2273 32.7933 18.695L32.8423 17.3745C32.8523 17.107 33.0355 16.8773 33.294 16.8081L34.5705 16.4665C35.085 16.3288 35.4982 15.9455 35.6739 15.4426L36.11 14.1953C36.1983 13.9426 36.4411 13.7771 36.7086 13.7872L38.029 13.837C38.5613 13.8571 39.069 13.6126 39.3852 13.1839L40.1695 12.1205C40.3284 11.9051 40.6092 11.8184 40.8618 11.9069L42.1089 12.3437C42.6116 12.5198 43.1689 12.4358 43.5973 12.1194L43.3052 11.7239L43.5973 12.1194L44.6602 11.3344C44.8756 11.1754 45.1694 11.1754 45.3847 11.3344L45.6818 10.9322L45.3847 11.3344L46.4477 12.1194C46.8761 12.4358 47.4334 12.5198 47.9361 12.3437L49.1832 11.9069C49.4358 11.8184 49.7166 11.9051 49.8755 12.1205L50.6598 13.1839C50.976 13.6126 51.4837 13.8571 52.016 13.837L53.3364 13.7872C53.6039 13.7771 53.8467 13.9426 53.935 14.1953L54.407 14.0303L53.935 14.1953L54.3711 15.4426C54.5468 15.9455 54.96 16.3288 55.4745 16.4665L56.7509 16.8081C57.0095 16.8773 57.1927 17.107 57.2027 17.3745L57.2517 18.695C57.2714 19.2273 57.5532 19.7153 58.0043 19.9986L59.1233 20.7012C59.35 20.8436 59.4574 21.1171 59.388 21.3756L59.0456 22.6519C58.9076 23.1663 59.033 23.7158 59.3806 24.1194L60.2428 25.1207C60.4175 25.3235 60.4394 25.6165 60.2969 25.8431L59.5936 26.9617C59.3101 27.4127 59.2679 27.9747 59.4811 28.4628L60.0099 29.6738C60.117 29.9191 60.0516 30.2055 59.8487 30.3801L58.8468 31.2417C58.443 31.589 58.2371 32.1136 58.2969 32.6429L58.4453 33.9559C58.4753 34.2219 58.3284 34.4764 58.083 34.5833L56.8717 35.1113C56.3835 35.3242 56.0321 35.7648 55.9332 36.2882L55.688 37.5866C55.6383 37.8496 55.4229 38.0495 55.1569 38.0794L53.8438 38.2269C53.3145 38.2864 52.8488 38.6039 52.6001 39.0749L51.983 40.2433C51.858 40.48 51.5933 40.6075 51.3303 40.5577L50.032 40.3116C49.5087 40.2124 48.9701 40.3785 48.5936 40.7553L47.6596 41.6899C47.4704 41.8792 47.1798 41.923 46.9432 41.7979L45.7751 41.1801C45.3043 40.9311 44.7407 40.9311 44.2699 41.1801L43.1018 41.7979C42.8652 41.923 42.5746 41.8792 42.3854 41.6899L41.4514 40.7553C41.0748 40.3785 40.5363 40.2124 40.013 40.3116L38.7147 40.5577C38.4517 40.6075 38.187 40.48 38.062 40.2433L37.4449 39.0749C37.1962 38.6039 36.7305 38.2864 36.2012 38.2269L34.8881 38.0794C34.6221 38.0495 34.4067 37.8496 34.357 37.5866L34.1118 36.2882C34.0129 35.7648 33.6615 35.3242 33.1732 35.1113L31.962 34.5833C31.7166 34.4764 31.5697 34.2219 31.5997 33.9559L31.7481 32.6429C31.8079 32.1136 31.602 31.589 31.1981 31.2417L30.1963 30.3801C29.9934 30.2055 29.928 29.9191 30.0351 29.6738Z" stroke="black"/>
<path d="M30.0351 29.6738L29.5798 29.475L30.0351 29.6738L30.5639 28.4628C30.777 27.9747 30.7349 27.4127 30.4514 26.9617L29.748 25.8431C29.6056 25.6165 29.6275 25.3235 29.8022 25.1207L30.6644 24.1194C31.012 23.7158 31.1374 23.1663 30.9994 22.6519L30.657 21.3756C30.5876 21.1171 30.695 20.8436 30.9217 20.7012L32.0407 19.9986L31.7748 19.5751L32.0407 19.9986C32.4918 19.7153 32.7736 19.2273 32.7933 18.695L32.8423 17.3745C32.8523 17.107 33.0355 16.8773 33.294 16.8081L34.5705 16.4665C35.085 16.3288 35.4982 15.9455 35.6739 15.4426L36.11 14.1953C36.1983 13.9426 36.4411 13.7771 36.7086 13.7872L38.029 13.837C38.5613 13.8571 39.069 13.6126 39.3852 13.1839L40.1695 12.1205C40.3284 11.9051 40.6092 11.8184 40.8618 11.9069L42.1089 12.3437C42.6116 12.5198 43.1689 12.4358 43.5973 12.1194L43.3052 11.7239L43.5973 12.1194L44.6602 11.3344C44.8756 11.1754 45.1694 11.1754 45.3847 11.3344L45.6818 10.9322L45.3847 11.3344L46.4477 12.1194C46.8761 12.4358 47.4334 12.5198 47.9361 12.3437L49.1832 11.9069C49.4358 11.8184 49.7166 11.9051 49.8755 12.1205L50.6598 13.1839C50.976 13.6126 51.4837 13.8571 52.016 13.837L53.3364 13.7872C53.6039 13.7771 53.8467 13.9426 53.935 14.1953L54.407 14.0303L53.935 14.1953L54.3711 15.4426C54.5468 15.9455 54.96 16.3288 55.4745 16.4665L56.7509 16.8081C57.0095 16.8773 57.1927 17.107 57.2027 17.3745L57.2517 18.695C57.2714 19.2273 57.5532 19.7153 58.0043 19.9986L59.1233 20.7012C59.35 20.8436 59.4574 21.1171 59.388 21.3756L59.0456 22.6519C58.9076 23.1663 59.033 23.7158 59.3806 24.1194L60.2428 25.1207C60.4175 25.3235 60.4394 25.6165 60.2969 25.8431L59.5936 26.9617C59.3101 27.4127 59.2679 27.9747 59.4811 28.4628L60.0099 29.6738C60.117 29.9191 60.0516 30.2055 59.8487 30.3801L58.8468 31.2417C58.443 31.589 58.2371 32.1136 58.2969 32.6429L58.4453 33.9559C58.4753 34.2219 58.3284 34.4764 58.083 34.5833L56.8717 35.1113C56.3835 35.3242 56.0321 35.7648 55.9332 36.2882L55.688 37.5866C55.6383 37.8496 55.4229 38.0495 55.1569 38.0794L53.8438 38.2269C53.3145 38.2864 52.8488 38.6039 52.6001 39.0749L51.983 40.2433C51.858 40.48 51.5933 40.6075 51.3303 40.5577L50.032 40.3116C49.5087 40.2124 48.9701 40.3785 48.5936 40.7553L47.6596 41.6899C47.4704 41.8792 47.1798 41.923 46.9432 41.7979L45.7751 41.1801C45.3043 40.9311 44.7407 40.9311 44.2699 41.1801L43.1018 41.7979C42.8652 41.923 42.5746 41.8792 42.3854 41.6899L41.4514 40.7553C41.0748 40.3785 40.5363 40.2124 40.013 40.3116L38.7147 40.5577C38.4517 40.6075 38.187 40.48 38.062 40.2433L37.4449 39.0749C37.1962 38.6039 36.7305 38.2864 36.2012 38.2269L34.8881 38.0794C34.6221 38.0495 34.4067 37.8496 34.357 37.5866L34.1118 36.2882C34.0129 35.7648 33.6615 35.3242 33.1732 35.1113L31.962 34.5833C31.7166 34.4764 31.5697 34.2219 31.5997 33.9559L31.7481 32.6429C31.8079 32.1136 31.602 31.589 31.1981 31.2417L30.1963 30.3801C29.9934 30.2055 29.928 29.9191 30.0351 29.6738Z" stroke="url(#paint5_linear_77_673)"/>
<circle cx="45.0235" cy="26.6246" r="9.93369" stroke="black"/>
<circle cx="45.0235" cy="26.6246" r="9.93369" stroke="url(#paint6_linear_77_673)"/>
<defs>
<linearGradient id="paint0_linear_77_673" x1="39.6763" y1="23.0231" x2="49.9847" y2="27.4957" gradientUnits="userSpaceOnUse">
<stop stop-color="#32CEB8"/>
<stop offset="1" stop-color="#61DAA4"/>
</linearGradient>
<linearGradient id="paint1_linear_77_673" x1="14.5562" y1="1.50629" x2="83.4805" y2="16.0852" gradientUnits="userSpaceOnUse">
<stop stop-color="#32CEB8"/>
<stop offset="1" stop-color="#61DAA4"/>
</linearGradient>
<linearGradient id="paint2_linear_77_673" x1="28.4282" y1="53.9114" x2="63.5673" y2="69.0898" gradientUnits="userSpaceOnUse">
<stop stop-color="#32CEB8"/>
<stop offset="1" stop-color="#61DAA4"/>
</linearGradient>
<linearGradient id="paint3_linear_77_673" x1="30.6992" y1="37.8261" x2="42.7299" y2="41.0966" gradientUnits="userSpaceOnUse">
<stop stop-color="#32CEB8"/>
<stop offset="1" stop-color="#61DAA4"/>
</linearGradient>
<linearGradient id="paint4_linear_77_673" x1="58.999" y1="38.0039" x2="47.0258" y2="41.2986" gradientUnits="userSpaceOnUse">
<stop stop-color="#32CEB8"/>
<stop offset="1" stop-color="#61DAA4"/>
</linearGradient>
<linearGradient id="paint5_linear_77_673" x1="28.8433" y1="9.42131" x2="64.2514" y2="19.4843" gradientUnits="userSpaceOnUse">
<stop stop-color="#32CEB8"/>
<stop offset="1" stop-color="#61DAA4"/>
</linearGradient>
<linearGradient id="paint6_linear_77_673" x1="34.5898" y1="15.5306" x2="57.4239" y2="22.02" gradientUnits="userSpaceOnUse">
<stop stop-color="#32CEB8"/>
<stop offset="1" stop-color="#61DAA4"/>
</linearGradient>
</defs>
</svg>
